<svg xmlns="http://www.w3.org/2000/svg" viewBox="0 0 500 500"><defs><style>.cls-1{fill:#ff8440;}.cls-2{fill:#fff;}</style></defs><g id="circles"><circle class="cls-1" cx="251.13" cy="251.14" r="237.55"/></g><g id="Layer_4" data-name="Layer 4"><path class="cls-2" d="M325.32,376.69l-6.83-12.16A11.33,11.33,0,0,1,317,359V181.61a7.53,7.53,0,0,0-7.53-7.53H195.1a7.53,7.53,0,0,0-7.53,7.53v31h-42a7.54,7.54,0,0,0-7.53,7.54v85.44a7.53,7.53,0,0,0,7.53,7.53h42V358s-.39,4.63-1.65,6.88l-.07.14-6.58,11.69a4.71,4.71,0,0,0,4.1,7H321.22A4.71,4.71,0,0,0,325.32,376.69Zm-166.5-83A2.83,2.83,0,0,1,156,290.9V234.78a2.83,2.83,0,0,1,2.83-2.82h25.93a2.82,2.82,0,0,1,2.82,2.82V290.9a2.82,2.82,0,0,1-2.82,2.82ZM296.6,349.43a3.76,3.76,0,0,1-3.76,3.76H211.75a3.76,3.76,0,0,1-3.76-3.76V251.3a3.77,3.77,0,0,1,3.76-3.77h81.09a3.77,3.77,0,0,1,3.76,3.77Zm0-118.39a3.76,3.76,0,0,1-3.76,3.77H211.75A3.76,3.76,0,0,1,208,231V199a3.76,3.76,0,0,1,3.76-3.76h81.09A3.76,3.76,0,0,1,296.6,199Z"/><circle class="cls-2" cx="261.28" cy="272.53" r="6.72"/><circle class="cls-2" cx="279.19" cy="257.28" r="4.6"/><circle class="cls-2" cx="280.34" cy="290.41" r="7.67"/><circle class="cls-2" cx="261.28" cy="311.54" r="9.99"/><circle class="cls-2" cx="216.16" cy="121.95" r="15.94"/><ellipse class="cls-2" cx="200.22" cy="145.07" rx="19.61" ry="18.39"/><circle class="cls-2" cx="269.52" cy="113.72" r="14.54"/><ellipse class="cls-2" cx="244.52" cy="129.69" rx="22.23" ry="20.52"/><circle class="cls-2" cx="307.34" cy="146.7" r="16.64"/><circle class="cls-2" cx="283.04" cy="136.26" r="20.09"/><rect class="cls-2" x="199.89" y="132.81" width="107.45" height="30.53"/></g></svg>