<svg xmlns="http://www.w3.org/2000/svg" viewBox="0 0 500 500"><defs><style>.cls-1{fill:#ffbc00;}.cls-2{fill:#fff;}.cls-3{fill:none;stroke:#fff;stroke-linecap:round;stroke-miterlimit:10;stroke-width:10px;}</style></defs><g id="circles"><circle class="cls-1" cx="251.75" cy="248.56" r="237.55"/></g><g id="Layer_4" data-name="Layer 4"><path class="cls-2" d="M372.27,211.72l-29.93,41.54a4.06,4.06,0,0,1-5.66.91l-17.08-12.3a1.07,1.07,0,0,0-1.7.87V368.39a3.91,3.91,0,0,1-3.91,3.92H189.51a3.91,3.91,0,0,1-3.91-3.92V242.74a1.07,1.07,0,0,0-1.7-.87l-17.08,12.3a4.06,4.06,0,0,1-5.66-.91l-29.93-41.54a4.06,4.06,0,0,1,.92-5.66l48.3-34.81h0a23.24,23.24,0,0,1,12-4.13h28.74a2.35,2.35,0,0,1,2.33,2.19,28.25,28.25,0,0,0,56.4,0,2.35,2.35,0,0,1,2.33-2.19H311a23.24,23.24,0,0,1,12,4.13h0l48.3,34.81A4.06,4.06,0,0,1,372.27,211.72Z"/><path class="cls-3" d="M289.25,204.14h-75a9.7,9.7,0,0,1-5.55-17.65l37.5-26.16a9.72,9.72,0,0,1,11.1,0l37.48,26.16A9.7,9.7,0,0,1,289.25,204.14Z"/><line class="cls-3" x1="251.75" y1="158.59" x2="251.75" y2="142.86"/><path class="cls-3" d="M238.35,128.84c0-7.76,6-14,13.4-14s13.4,6.27,13.4,14-6,14-13.4,14"/></g></svg>