<svg xmlns="http://www.w3.org/2000/svg" viewBox="0 0 500 500"><defs><style>.cls-1{fill:#ffbc00;}.cls-2{fill:#fff;}.cls-3{fill:#ddd;}.cls-4,.cls-6{fill:none;stroke:#fff;stroke-linecap:round;stroke-linejoin:round;}.cls-4{stroke-width:8px;}.cls-5{fill:#ff8017;}.cls-6{stroke-width:6px;}</style></defs><g id="circles"><circle class="cls-1" cx="252" cy="250" r="237.55"/></g><g id="Layer_4" data-name="Layer 4"><polygon class="cls-2" points="188.19 211.33 188.17 211.35 188.15 211.33 188.19 211.33"/><polygon class="cls-2" points="239.96 211.33 239.94 211.35 239.92 211.33 239.96 211.33"/><polygon class="cls-2" points="265.82 211.33 265.74 211.41 265.66 211.33 265.82 211.33"/><path class="cls-2" d="M288.68,208.79V372.35H164.18a10,10,0,0,1-10-10V213.29a2,2,0,0,1,3.41-1.42l7.25,7.24a4,4,0,0,0,5.65,0l7.81-7.8a4,4,0,0,1,5.66,0l7.8,7.8a4,4,0,0,0,5.66,0l1.86-1.86,6.07-6.07a4,4,0,0,1,5.38-.07l6.15,6.14,1.86,1.86a4,4,0,0,0,5.66,0l7.8-7.8a4,4,0,0,1,5.66,0l7.81,7.8a4,4,0,0,0,5.65,0l7.75-7.74a4,4,0,0,1,5.65,0l7.75,7.74a4,4,0,0,0,5.65,0l9.3-9.29a3.05,3.05,0,0,1,.36-.36A4.11,4.11,0,0,1,288.68,208.79Z"/><path class="cls-2" d="M243.85,217.29H226.22l6-6a4,4,0,0,1,5.66,0Z"/><polygon class="cls-3" points="314.05 211.33 313.99 211.4 313.92 211.33 314.05 211.33"/><path class="cls-4" d="M335.65,212.27V358.49a10,10,0,0,1-10,9.92h-35V212.27h.1l0,0L302,223.45l11.21-11.11,11.2,11.11Z"/><polygon class="cls-4" points="291.81 213.38 290.64 215.89 290.64 212.27 290.74 212.27 290.72 212.3 291.81 213.38"/><rect class="cls-5" x="188.16" y="211.31" width="0.03" height="0.03" transform="translate(-94.32 194.95) rotate(-45)"/><rect class="cls-5" x="188.16" y="211.31" width="0.03" height="0.03" transform="translate(-94.32 194.95) rotate(-45)"/><rect class="cls-5" x="239.93" y="211.31" width="0.03" height="0.03" transform="translate(-79.15 231.56) rotate(-45)"/><rect class="cls-5" x="239.93" y="211.31" width="0.03" height="0.03" transform="translate(-79.09 232.54) rotate(-45.18)"/><rect class="cls-5" x="265.68" y="211.27" width="0.11" height="0.11" transform="translate(-71.6 249.8) rotate(-45)"/><rect class="cls-5" x="265.68" y="211.27" width="0.11" height="0.11" transform="translate(-71.6 249.8) rotate(-45)"/><polygon class="cls-5" points="291.56 211.33 291.54 211.36 291.46 211.43 291.46 211.33 291.51 211.33 291.54 211.31 291.56 211.33"/><polygon class="cls-5" points="291.54 211.31 291.56 211.33 291.54 211.36 291.51 211.33 291.54 211.31"/><polygon class="cls-5" points="314.05 211.33 313.99 211.4 313.92 211.33 313.99 211.27 314.05 211.33"/><polygon class="cls-5" points="314.05 211.33 313.99 211.4 313.92 211.33 313.99 211.27 314.05 211.33"/><path class="cls-2" d="M216.9,217.25H199.28l6-6,.1-.09a4,4,0,0,1,5.38-.07l.18.16Z"/><polygon class="cls-2" points="278.92 367.67 280.76 367.72 278.73 366.9 278.56 367.42 278.92 367.67"/><path class="cls-2" d="M288.88,209.65l-.2.06-.39.11s-1.55.75-.87,0a3.05,3.05,0,0,1,.36-.36,4.11,4.11,0,0,1,.9-.67Z"/><path class="cls-4" d="M221,243.67a19.68,19.68,0,0,1-38.6,4L156,151.86a19.67,19.67,0,0,1,13.72-24.2,19.68,19.68,0,0,1,24.21,13.73l6.69,24.22v78.06Z"/><rect class="cls-4" x="200.6" y="155.85" width="44.73" height="87.81"/><polygon class="cls-4" points="245.32 155.85 200.6 155.85 213.6 136.94 258.32 136.94 245.32 155.85"/><path class="cls-4" d="M256.21,209.47a22.5,22.5,0,0,0,15.43,21.37v12.83H245.32V155.85l13-18.9,13.32,18.9V188.1A22.5,22.5,0,0,0,256.21,209.47Z"/><rect class="cls-4" x="213.6" y="121.43" width="44.73" height="15.51"/><path class="cls-4" d="M298.56,198.84,283.4,231.49a22.51,22.51,0,1,1,15.16-32.65Z"/><path class="cls-4" d="M273,253.89l17.65-38v34.68L284,260.18a6.34,6.34,0,0,1-11-6.29Z"/><path class="cls-4" d="M340.14,175a14.44,14.44,0,0,1-2.6,8.27l-22,31.52-2.42-2.4L302,223.45l-10.15-10.07,20.69-44.55A14.49,14.49,0,0,1,340.14,175Z"/><polyline class="cls-4" points="348.91 134.46 334.69 143.88 322.8 126.11 324.87 160.45"/><polyline class="cls-4" points="349.23 134.64 348.24 151.67 369.58 152.99 338.87 168.5"/><path class="cls-2" d="M159.87,172.84s10.26-11.73,25-7.34C184.87,165.5,174.82,176.8,159.87,172.84Z"/><path class="cls-2" d="M165.73,198.63s10.26-11.73,25-7.34C190.73,191.29,180.68,202.59,165.73,198.63Z"/><line class="cls-6" x1="308.07" y1="178.37" x2="318.57" y2="183.43"/><line class="cls-6" x1="323.93" y1="202.76" x2="313.15" y2="197.76"/><line class="cls-6" x1="295.97" y1="204.41" x2="304.06" y2="207.99"/></g></svg>