<svg xmlns="http://www.w3.org/2000/svg" viewBox="0 0 500 500"><defs><style>.cls-1{fill:#1caeb5;}.cls-2{fill:#fff;}</style></defs><g id="circles"><circle class="cls-1" cx="249.13" cy="251.14" r="237.55"/></g><g id="Layer_4" data-name="Layer 4"><path class="cls-2" d="M149.09,377.1H359.43a3.8,3.8,0,0,0,2.27-6.85c-10-7.44-27.89-21.88-55-47.73C266,283.63,203.64,349.67,148,371.6A2.85,2.85,0,0,0,149.09,377.1Z"/><path class="cls-2" d="M208.62,135.21c-7,11.07-23.08,41.54-14.79,77.47a5.08,5.08,0,0,0,7.64,3.2c10.23-6.35,33.35-18.14,62.24-16.7a5.06,5.06,0,0,0,5-6.9c-5.77-14.62-21.39-46.42-52-59.58A6.52,6.52,0,0,0,208.62,135.21Z"/><path class="cls-2" d="M194.34,140c-6.49,11.16-19.66,39.13-11.59,71.54a3.34,3.34,0,0,1-4.32,3.95c-9.45-3.13-28.21-7.23-45.68,1.57a3.45,3.45,0,0,1-4.93-3.77c3.57-18.09,17.08-63.85,63.66-77A2.52,2.52,0,0,1,194.34,140Z"/><path class="cls-2" d="M232.75,129.9c11.15,6.52,36.38,24.39,45.3,56.56a3.36,3.36,0,0,0,5.72,1.31c6.67-7.37,21-20.18,40.52-21.12a3.46,3.46,0,0,0,2.44-5.72c-12-14-46.31-47.15-93.31-35.65A2.52,2.52,0,0,0,232.75,129.9Z"/><path class="cls-2" d="M240.91,217l30,114-10.8,2.85-30-113.9a3.61,3.61,0,0,1,2.4-4.34c1.31-.41,2.66-.79,4-1.13A3.59,3.59,0,0,1,240.91,217Z"/></g></svg>