<svg xmlns="http://www.w3.org/2000/svg" viewBox="0 0 500 500"><defs><style>.cls-1{fill:#9569ff;}.cls-2{fill:#f2d249;}.cls-3{fill:none;stroke:#fff;stroke-linecap:round;stroke-miterlimit:10;stroke-width:30px;}.cls-4{fill:#fff;}</style></defs><g id="circles"><circle class="cls-1" cx="250" cy="248.56" r="237.55"/></g><g id="Layer_4" data-name="Layer 4"><path class="cls-2" d="M225.68,305.26h48a28.85,28.85,0,0,1-48,0Z"/><path class="cls-2" d="M278.51,289.3a28.73,28.73,0,0,1-.68,6.2H221.58a28.8,28.8,0,1,1,56.93-6.2Z"/><path class="cls-2" d="M188.84,236.88V364.49a12,12,0,0,0,12,12h97.68a12,12,0,0,0,12-12V236.88Zm60.86,93.77a41.38,41.38,0,1,1,41.36-41.35A41.47,41.47,0,0,1,249.7,330.65Z"/><path class="cls-3" d="M298.84,170.89a47.68,47.68,0,0,0-95.36,0,46.92,46.92,0,0,0,6.39,23.7,47.68,47.68,0,0,0,22.71,19.94h0a47.29,47.29,0,0,0,13.92,3.5c1.52.15,3.07.23,4.64.23"/><polygon class="cls-2" points="255.25 243.8 192.29 241.57 188.84 236.88 188.84 173.05 210.48 192.17 235.35 214.15 235.37 214.16 250.62 227.64 254.53 231.1 254.86 236.88 255.25 243.8"/><path class="cls-4" d="M225.68,305.26h48a28.85,28.85,0,0,1-48,0Z"/><path class="cls-4" d="M278.51,289.3a28.73,28.73,0,0,1-.68,6.2H221.58a28.8,28.8,0,1,1,56.93-6.2Z"/><path class="cls-4" d="M310.52,258.86c.2-7,1.32-14,0-20.87-.06-.36-.14-.71-.22-1.07v0a26.14,26.14,0,0,0-.92-3.11c-2.64-7.25-8-13.25-13.54-18.44-12.56-11.72-45.52-12.07-45.52-12.07l.31,14.76a51.58,51.58,0,0,1-15.25-3.86l-24.89-22-21.64-19.12V364.49a12,12,0,0,0,12,12h97.68a12,12,0,0,0,12-12V282.41c0-7.75-.2-15.52,0-23.27C310.51,259.05,310.52,259,310.52,258.86ZM249.7,330.65a41.38,41.38,0,1,1,41.36-41.35A41.47,41.47,0,0,1,249.7,330.65Z"/></g></svg>