<svg xmlns="http://www.w3.org/2000/svg" viewBox="0 0 500 500"><defs><style>.cls-1{fill:#279eff;}.cls-2{fill:#fff;}</style></defs><g id="circles"><circle class="cls-1" cx="250.87" cy="250" r="237.55"/></g><g id="Layer_4" data-name="Layer 4"><path class="cls-2" d="M245.15,99.9a72,72,0,0,0-70.23,68.33c-.88,18.72,8.4,35.34,13.39,52.86,5.78,20.31,10.86,29.82,16.36,50.21A15.89,15.89,0,0,0,220,283.06H273.1a15.9,15.9,0,0,0,15.35-11.76c5.27-19.55,9.44-28.39,15.52-47.71,5.37-17.1,14.43-33.58,14.43-51.92A71.78,71.78,0,0,0,245.15,99.9Zm26.78,116.3c-.35,5.66-2.52,11.17-7.36,14.41-5.74,3.84-12.9,3.28-19.49,3.28h-9.54V257H225V196.92h3.46c8.4,0,16.91-.4,25.29,0a20.46,20.46,0,0,1,11.8,4c4.39,3.47,6.17,8.93,6.37,14.37a2.26,2.26,0,0,1,0,.26C272,215.74,271.94,216,271.93,216.2Zm16.9-44.35H204.41a7.09,7.09,0,0,1-7-8.19,49.92,49.92,0,0,1,98.48,0A7.09,7.09,0,0,1,288.83,171.85Zm-31,36.3c-3.77-3.37-9-2.78-13.61-2.67-2.9.07-5.81,0-8.71,0v19.83h10.73c1.58,0,3.23,0,4.83,0,3.42-.21,6.66-1.06,8.63-4.4A10.13,10.13,0,0,0,257.86,208.15Z"/><path class="cls-2" d="M246.62,145.33h0a5.23,5.23,0,0,1,5.23,5.23v23a0,0,0,0,1,0,0H241.39a0,0,0,0,1,0,0v-23a5.23,5.23,0,0,1,5.23-5.23Z"/><path class="cls-2" d="M244.26,120.94H249a0,0,0,0,1,0,0v8.23a2.37,2.37,0,0,1-2.37,2.37h0a2.37,2.37,0,0,1-2.37-2.37v-8.23a0,0,0,0,1,0,0Z"/><path class="cls-2" d="M211.45,134.59h4.74a0,0,0,0,1,0,0v8.23a2.37,2.37,0,0,1-2.37,2.37h0a2.37,2.37,0,0,1-2.37-2.37v-8.23A0,0,0,0,1,211.45,134.59Z" transform="translate(-36.29 192.17) rotate(-45)"/><path class="cls-2" d="M278.84,134.59h0a2.37,2.37,0,0,1,2.37,2.37v8.23a0,0,0,0,1,0,0h-4.74a0,0,0,0,1,0,0V137a2.37,2.37,0,0,1,2.37-2.37Z" transform="translate(377.1 435.98) rotate(-135)"/><rect class="cls-2" x="228.96" y="296.89" width="39.07" height="103.23" rx="8.08"/></g></svg>