<svg xmlns="http://www.w3.org/2000/svg" viewBox="0 0 500 500"><defs><style>.cls-1{fill:#1caeb5;}.cls-2{fill:#fff;}</style></defs><g id="circles"><circle class="cls-1" cx="252" cy="250" r="237.55"/></g><g id="Layer_4" data-name="Layer 4"><path class="cls-2" d="M61.4,251.85c8.61-4,51.49-22.51,125.52-34.65a10.1,10.1,0,0,0,6.67-4.25c5.46-7.93,19.6-26.86,34.07-33.22a4.4,4.4,0,0,1,6.15,4c.2,10.6,2.71,32.54,19.46,39.72,9.48,2.09,18.89,4.55,28.22,7.2,12.51,3.56,23.25,8.17,35,13.54,10.6,4.87,17-4.15,25.3-8.94a3.63,3.63,0,0,1,5.4,2.72c.61,4.76,2.91,11.64,10.82,14.7,12.7,4.9,17.73,1.81,17.73,1.81s9.85-6.73,20.77-22.72c9.06-13.25,24.85-28.18,37.22-33.26a2.42,2.42,0,0,1,2.82,3.72c-6.41,8.34-17.81,24.1-19.33,32.52-1.72,9.56-11.49,25.87-15.16,31.75a4.8,4.8,0,0,0-.29,4.56c1.66,3.63,4.66,10.51,5.27,14a25.72,25.72,0,0,0,3.23,7.43,3.57,3.57,0,0,1-4.13,5.23c-4-1.29-9.48-4.42-15.93-11.52,0,0-9.84-13.76-15.45-13.7-7.68.1-26.26-.28-20.59,13.24a2.73,2.73,0,0,1-3.06,3.76,44.75,44.75,0,0,1-7.95-2.5c-7.61-3.17-14.12-10.1-23-8.69-7.66,1.22-14.65,12.14-16.12,19.2a1.46,1.46,0,0,1-1.8,1.12,77.57,77.57,0,0,1-14.15-5.32c-6.52-3.25-11.87-9.27-19.46-7.8-5.47,1.07-10.88,2.38-16.39,3.27A204,204,0,0,1,218,291c-8.6-.11-22.87-4.71-27.11,5.55a62,62,0,0,0-4.18,28.56,4.11,4.11,0,0,1-6.72,3.55c-6.9-5.69-16.48-16.75-21.51-36.57-.38-1.52-3.77-4.93-5.31-5.2-14.24-2.43-80.93-12.86-92.51-32.63A1.72,1.72,0,0,1,61.4,251.85Z"/></g></svg>