<svg xmlns="http://www.w3.org/2000/svg" viewBox="0 0 363.07 376.09"><defs><style>.cls-1{fill:#c1c1c1;}.cls-2{fill:#ddd;}.cls-3{fill:#f95f5f;}.cls-4{fill:#279eff;}.cls-5{fill:#33aa63;}.cls-6{fill:#ffbc00;}.cls-7{fill:#563e2a;}.cls-8{fill:#262626;}.cls-9{fill:#474747;}.cls-10{fill:#6d4add;}.cls-11{fill:#153c6b;}.cls-12{fill:#9569ff;}.cls-13{fill:#5e5e5e;}.cls-14{fill:none;stroke:#6d6441;stroke-miterlimit:10;}.cls-15{fill:#282620;}.cls-16{fill:#352a22;}.cls-17{fill:#234f8e;}.cls-18{fill:#c18a00;}.cls-19{fill:#fff;}</style></defs><g id="Layer_3" data-name="Layer 3"><path class="cls-1" d="M431.54,438H68.46L91.77,412l12-13.39h0l4.46-5s0,0,0,0,.22-.26.63-.7a1,1,0,0,1,.18-.2c.32-.37.73-.83,1.22-1.37.14-.17.31-.35.48-.53l3.39-3.81c.19-.2.37-.41.55-.61l2.71-3,.55-.62,3.11-3.48s0-.05.06-.06a.68.68,0,0,0,.09-.12H378.79l32,35.84,7.07,7.91Z" transform="translate(-68.46 -61.96)"/><polygon class="cls-2" points="339.66 376.09 328.98 376.09 314.47 360.43 307.13 352.51 286.92 330.7 274.29 317.07 260.44 302.13 265.8 296.39 284.97 317.07 291.24 323.84 317.93 352.63 325.26 360.55 339.66 376.09"/><path class="cls-3" d="M345.68,323.58A29.39,29.39,0,0,0,316.29,353c0,10.09,5.88,17.93,11.09,26l.79,1.24Q335.6,392.07,343,403.9a3.15,3.15,0,0,0,5.27.1s0,0,0,0l6.41-10.24c.23-.36.46-.71.68-1.07l4.31-6.86q2.13-3.37,4.25-6.77c1.32-2.11,2.66-4.23,4-6.35,3.76-6,7.14-12.42,7.14-19.7A29.4,29.4,0,0,0,345.68,323.58Zm0,16A12.45,12.45,0,1,1,333.23,352,12.45,12.45,0,0,1,345.68,339.58Z" transform="translate(-68.46 -61.96)"/><polygon class="cls-2" points="119.01 338.1 117.9 330.32 238.06 322.12 239.16 329.89 119.01 338.1"/><polygon class="cls-2" points="349.42 360.82 325.26 360.55 314.47 360.43 277.02 360.01 265.85 359.89 265.36 352.05 269.55 352.1 307.13 352.51 317.93 352.63 342.35 352.91 349.42 360.82"/><path class="cls-4" d="M280.58,438H259a17.06,17.06,0,0,0-6.31-4.8,67.4,67.4,0,0,0-7.08-2.84h0c-3-1-6-2-8.91-2.95-5.49-1.89-11.07-3.57-16.69-5.17-1.12-.33-2.25-.66-3.37-1h0c-6.69-2-13.31-4.31-20.38-5.3-.5-.07-1-.13-1.51-.18A53,53,0,0,0,183,415.7a55.93,55.93,0,0,0-10.83,2.19c-22.56,6.88-58.06,27.08-75.55,2.7A51.2,51.2,0,0,1,91.77,412l12-13.39c-.35,3.18-.36,14.88,16.45,19.39,8.24,2.21,16.89.08,24.41-2.89,7-2.77,13.35-6.5,20.16-9.59a41.77,41.77,0,0,1,15.72-3.22,82.46,82.46,0,0,1,11.73.49,150.67,150.67,0,0,1,16.4,2.77,215.47,215.47,0,0,1,40.29,13.12h0a161.46,161.46,0,0,1,19,9.94c.74.45,1.46.92,2.19,1.38a90.51,90.51,0,0,1,8.42,6.06C278.8,436.23,279.71,437.23,280.58,438Z" transform="translate(-68.46 -61.96)"/><path class="cls-5" d="M108.23,393.55c-.57.63.54,4.16.72,4.83a19.58,19.58,0,0,0,5.07,9.18,18.9,18.9,0,0,0,11.55,5c15.85,1.59,28.48-10.38,43.35-13.65a4.69,4.69,0,0,0,3.6-5.43L169.89,379H121.21Z" transform="translate(-68.46 -61.96)"/><polygon class="cls-6" points="130.44 376.09 118.79 376.09 114.55 353.75 112.01 340.31 107.6 317.07 119.25 317.07 121.72 330.07 123.19 337.82 123.75 340.8 126.22 353.84 127.58 361 129.73 372.31 130.44 376.09"/><polygon class="cls-6" points="118.4 373.23 116.73 361.88 261.3 350.11 262.96 361.46 118.4 373.23"/><polygon class="cls-6" points="292.18 376.09 275.5 376.09 261.79 361.56 251.73 350.89 232.37 330.36 225.41 322.98 219.83 317.07 236.51 317.07 269.55 352.1 277.02 360.01 292.18 376.09"/></g><g id="Layer_2" data-name="Layer 2"><path class="cls-6" d="M188.33,203.63s-12.27-3.21-10.49-17.16S189,142.61,201,142.93s16.37,41.45,16.37,41.45l-19,21.11-6.66,1.77Z" transform="translate(-68.46 -61.96)"/><path class="cls-7" d="M179.32,158l-19.66,73.24s-8.93,14.23-5.58,20.51,7.11,4,9.21-1.53,3.9-1.4,3.9-1.4,1.82,5,4.47,4.19-2-2.24-2.51-6.28-5.45-8.1-4.75-14.65,30.35-64.68,30.35-64.68L193,158Z" transform="translate(-68.46 -61.96)"/><path class="cls-7" d="M215.69,122.08s-7.9,5.18-3.52,14.2-18.42-1.67-18.42-1.67,7.31-4.58-3-29.87C196.91,104.74,215.69,122.08,215.69,122.08Z" transform="translate(-68.46 -61.96)"/><path class="cls-8" d="M147.48,381.9s-4.15,7.59-8.06,11.13,11.17,18.6,11.17,18.6h18.79s3-8.37-5.4-9.67-8.32-17.65-8.32-17.65Z" transform="translate(-68.46 -61.96)"/><path class="cls-9" d="M253.38,385s4.61,9.55,2.5,13.49-1.9,13.6,1.46,13.17,29.74-9,29.74-9S289,392.3,280,393.88s-12.31,1.77-16.36-6.52-4.86-9.54-4.86-9.54l-7-5.32Z" transform="translate(-68.46 -61.96)"/><path class="cls-10" d="M212.17,136.28s8.72-.55,11.38,6.66-10.64.32-10.64.32Z" transform="translate(-68.46 -61.96)"/><path class="cls-10" d="M199.28,157.56s6.05,8.19,6.73,12.95,6.9-18.32,6.9-18.32l-6.81-10.7-7.42,1.86-3,8.1Z" transform="translate(-68.46 -61.96)"/><path class="cls-11" d="M227.52,250.15a136.5,136.5,0,0,1-6.7,15.15,182.42,182.42,0,0,1-14.44,23.39c-.86,1.19-1.68,2.29-2.44,3.29a104.07,104.07,0,0,0-10.14,16.24l-38.14,76.09a4.33,4.33,0,0,1-8.18-2.41c.73-6.78,3-27.56,3.93-33.28l.06-.29c8.16-35.82,22.37-54.19,26.53-59a4.27,4.27,0,0,0,1-3.08c-.12-1.95-.26-5.41-.18-9.94a152.63,152.63,0,0,1,2.3-24,127.62,127.62,0,0,1,5.35-20.42,103.1,103.1,0,0,1,4.93-11.69c3.9-7.88,8.61-12.4,13.49-14.74a18.66,18.66,0,0,0,2.14,4.11c10.08,11.42,16.39,26.31,20.33,40.12Z" transform="translate(-68.46 -61.96)"/><path class="cls-12" d="M186.41,207.23s21.29-16.25,19.81-35l-3.35-27-6.7,23.07-18.33-11.16s6.61-21.58,15.91-22.51a56.06,56.06,0,0,1,18.42,1.67s27.91,14.14,26.05,23.44S228,176.47,228.35,193s-9.88,33.59-9.88,33.59Z" transform="translate(-68.46 -61.96)"/><path class="cls-7" d="M230.44,178.77s4.42,11.93,7.86,11.65,9.5-6.79,9.5-6.79l29.86-32.74s6.6-2.89,8.09-5.31,1.77-7.47,7.16-11.17-15.81-5.66-15.81-5.66-6.51,14.21-4.47,17.47l-31.35,23.09-4.22-5.68-5,1.68-5.77,11.07Z" transform="translate(-68.46 -61.96)"/><path class="cls-13" d="M276.11,142.42l5.35,2.52a2.44,2.44,0,0,0,3.2-1.06l8.6-16.1a2.46,2.46,0,0,0-1.33-3.46l-6.78-2.45a2.44,2.44,0,0,0-3.07,1.3l-7.17,16A2.45,2.45,0,0,0,276.11,142.42Z" transform="translate(-68.46 -61.96)"/><path class="cls-14" d="M212.17,99.35" transform="translate(-68.46 -61.96)"/><path class="cls-7" d="M190.93,104.53a17,17,0,0,1-3.86-14c.93-5.1,5.57-8.35,10.05-10.26,5.33-2.28,11.46-3.33,17-1.48a20,20,0,0,1,9.14,6.61c2.89,3.67,4.64,8.55,3.47,13.07-.37,1.41-1,2.85-.65,4.26s1.41,2.23,1.78,3.49a6.56,6.56,0,0,1-.14,3.17c-1,4.49-2,9-4.41,13a3.21,3.21,0,0,1-1.28,1.35,3.12,3.12,0,0,1-2.11,0,34,34,0,0,1-9.66-4.72c-4.23-2.77-8.22-5.89-12.37-8.79A37.41,37.41,0,0,1,190.93,104.53Z" transform="translate(-68.46 -61.96)"/><path class="cls-15" d="M205.38,100.94a13.53,13.53,0,0,0-2-.41,2.51,2.51,0,0,0-1.74.24c-.3.26-.23.9,0,1.5a10.38,10.38,0,0,0,.83,1.8,21.25,21.25,0,0,0,2.21,3.39,2.81,2.81,0,0,0,1.48,1.07c.57.11,1.11-.47,1.41-1.08a2.25,2.25,0,0,1-.41,1,1.37,1.37,0,0,1-1,.58,3.1,3.1,0,0,1-2-1,14.64,14.64,0,0,1-2.53-3.46,10.67,10.67,0,0,1-.86-2,4,4,0,0,1-.15-1.17,1.51,1.51,0,0,1,.61-1.22,1.86,1.86,0,0,1,1.21-.29,4.37,4.37,0,0,1,1.1.2A8.87,8.87,0,0,1,205.38,100.94Z" transform="translate(-68.46 -61.96)"/><path class="cls-16" d="M227,93s9.69-3,4.2-10.24c0,0,7.81-7.81-1.26-11.9,0,0-1.35-7.07-9.07-4.65,0,0-5.95-8.36-11.53-.51,0,0-6.89-8.7-11.35.32,0,0-9.58-4.46-11.72,3.81-.47.93-7.72-1.21-5.58,6.33,0,0-6,3.26-.4,8.19,0,0-9.27,2.79-2.39,8.65,0,0-5.21,7.81,3.44,8.46,0,0-.37,7.72,6.14,4.65,0,0-2.23,7.72,5.67,8.28,0,0,4.82,6.89,7.62-2.14,0,0,6.17-2.79,2.39-8.46,0,0,5.81-2.7,4.32-8.47,0,0,5.86,3.17,7.35-2.6,0,0,4.55,3.44,6.14-.56C221,92.19,225.07,95.54,227,93Z" transform="translate(-68.46 -61.96)"/><path class="cls-15" d="M205.75,111.54s-3.46,5.37,9.94,10.54l-3.52,4.9S201.38,115.91,205.75,111.54Z" transform="translate(-68.46 -61.96)"/><path class="cls-17" d="M197.5,196a83.17,83.17,0,0,1-13.56,10.12c-7,4,34.53,20.54,34.53,20.54a76.55,76.55,0,0,0,8.38-20.87C230.05,193,197.5,196,197.5,196Z" transform="translate(-68.46 -61.96)"/><path class="cls-17" d="M257,386.7A4.33,4.33,0,0,1,253.5,385c-4.1-5.45-16.63-22.18-19.86-27a1.28,1.28,0,0,1-.15-.25c-18.52-31.73-20.7-54.86-20.93-61.2a4.28,4.28,0,0,0-1.34-3c-1.08-1-2.77-2.67-4.84-4.88-.66-.69-1.36-1.44-2.09-2.25a144.89,144.89,0,0,1-23.13-34.1c-.55-1.17-1.1-2.36-1.62-3.56a103.69,103.69,0,0,1-4.39-11.9c-8.45-28.15,15.31-35,23.86-36.6a4.33,4.33,0,0,1,4.68,2.39c.42.89.84,1.87,1.24,2.82a18.66,18.66,0,0,0,2.14,4.11c10.08,11.42,16.39,26.31,20.33,40.12l.12.43a183.79,183.79,0,0,1,5.78,30.58A103.75,103.75,0,0,0,237,299.52l24.13,81.61A4.33,4.33,0,0,1,257,386.7Z" transform="translate(-68.46 -61.96)"/><polygon class="cls-12" points="129.03 134 161.52 144.84 161.97 116.82 168.6 101.67 156.63 99.81 129.03 134"/><path class="cls-18" d="M193.75,134.61s30.05,10.57,11.72,45.9l-8,15.45s21-4.61,22.11-32.51S201,132,201,132,193.56,132.19,193.75,134.61Z" transform="translate(-68.46 -61.96)"/><path class="cls-8" d="M146.67,383.31l1.16-8.64s2.93,4.18,11.65,3.38c0,0-4.08,6.16-3.55,10.28s-7,.64-7,.64l-2.06-2.55Z" transform="translate(-68.46 -61.96)"/><path class="cls-9" d="M255.58,390.74l-3.41-6A13,13,0,0,0,262.54,381s.65,7.1,4,11.09S255.58,390.74,255.58,390.74Z" transform="translate(-68.46 -61.96)"/><g id="Regular-S"><path class="cls-19" d="M281.76,137.22a.47.47,0,0,0,.65-.21l2.66-5.31.4-.91.59,2.13.4,1.12a.4.4,0,0,0,.24.27.45.45,0,0,0,.62-.21.49.49,0,0,0,0-.38L286,129.59a.48.48,0,0,0-.25-.3.44.44,0,0,0-.39,0l-4.12,1.37a.52.52,0,0,0-.29.25.46.46,0,0,0,.2.63.5.5,0,0,0,.36,0l1.13-.36,2.06-.81-.48.88-2.65,5.31A.45.45,0,0,0,281.76,137.22Z" transform="translate(-68.46 -61.96)"/></g></g></svg>