<svg xmlns="http://www.w3.org/2000/svg" viewBox="0 0 500 500"><defs><style>.cls-1{fill:#234f8e;}.cls-2{fill:#fff;}.cls-3{fill:none;stroke:#fff;stroke-linecap:round;stroke-miterlimit:10;stroke-width:10px;}</style></defs><g id="circles"><circle class="cls-1" cx="250" cy="248.56" r="237.55"/></g><g id="Layer_4" data-name="Layer 4"><path class="cls-2" d="M223.91,266.26,112.35,212.43a5,5,0,0,1,.44-9.19l159.13-58.7a9.36,9.36,0,0,1,7.32.35l111.47,53.79a5,5,0,0,1-.44,9.19L231.06,266.6A9.16,9.16,0,0,1,223.91,266.26Z"/><line class="cls-3" x1="223.33" y1="307.88" x2="385.86" y2="248.48"/><path class="cls-3" d="M113.11,208.79s-14.57,21.59-.59,45.4l110.81,53.69"/><line class="cls-3" x1="223.33" y1="353.16" x2="385.86" y2="293.64"/><path class="cls-3" d="M113.11,258.79s-14.57,20.56-.59,43.24l110.81,51.13"/></g></svg>