<svg xmlns="http://www.w3.org/2000/svg" viewBox="0 0 500 500"><defs><style>.cls-1{fill:#ec66ff;}.cls-2{fill:#fff;}.cls-3{fill:none;stroke:#fff;stroke-linecap:round;stroke-miterlimit:10;stroke-width:6px;}</style></defs><g id="circles"><circle class="cls-1" cx="251.88" cy="250" r="237.55"/></g><g id="Layer_4" data-name="Layer 4"><path class="cls-2" d="M241.8,147.11l-36.91-12a7,7,0,0,0-8.12,3,169.91,169.91,0,0,0-16.59,36.57c-.58,1.78-1.12,3.55-1.65,5.31-9.81,33.45-8.77,63.64,2,73.93a12.93,12.93,0,0,0,11.12,3.62c14.79-2,33.38-25.8,45.1-58.63q.91-2.59,1.79-5.26a170.36,170.36,0,0,0,8.06-39.3A7,7,0,0,0,241.8,147.11Zm-16,58.31C214.11,232.53,199,250.27,188.94,247c-8.31-2.7-11-19.06-8-40.93a4,4,0,0,1,4-3.47H224A2,2,0,0,1,225.8,205.42Z"/><path class="cls-2" d="M197.9,241.67a7.92,7.92,0,0,1-5.91.7c-6.9-2.24-8.88-16.42-5.91-35h3.85c-2.75,18.12-.72,31.83,6.06,34A6.15,6.15,0,0,0,197.9,241.67Z"/><path class="cls-2" d="M193.15,253l-1.48,4.54a12.93,12.93,0,0,1-11.12-3.62l1.47-4.53Z"/><path class="cls-2" d="M182.28,267.5a12.76,12.76,0,0,0,4.53.6,1,1,0,0,1,1,1.31l-28.58,88-11.13-3.61,28.58-88a1,1,0,0,1,1.58-.47A13.11,13.11,0,0,0,182.28,267.5Z"/><ellipse class="cls-2" cx="153.67" cy="355.56" rx="8.19" ry="30.7" transform="translate(-231.98 391.83) rotate(-72)"/><path class="cls-2" d="M326.86,178.68c-.52-1.77-1.06-3.54-1.64-5.32a170.09,170.09,0,0,0-16.6-36.56,7,7,0,0,0-8.12-3l-36.92,12a7,7,0,0,0-4.82,7.22,170.86,170.86,0,0,0,8.07,39.29c.58,1.78,1.18,3.53,1.8,5.27,11.72,32.82,30.3,56.64,45.08,58.63a12.94,12.94,0,0,0,11.13-3.62C335.63,242.31,336.68,212.12,326.86,178.68Zm-10.41,67c-9.88,3.22-24.69-13.91-36.3-40.29a2,2,0,0,1,1.83-2.82h38.67a4,4,0,0,1,4,3.5C327.33,227.32,324.59,243.07,316.45,245.72Z"/><path class="cls-2" d="M323.37,248.07l1.47,4.54a12.94,12.94,0,0,1-11.13,3.62l-1.47-4.54Z"/><path class="cls-2" d="M323.11,266.21a12.88,12.88,0,0,0,4-2.17,1,1,0,0,1,1.57.47l28.59,88-11.13,3.62-28.58-88a1,1,0,0,1,1-1.3A13,13,0,0,0,323.11,266.21Z"/><ellipse class="cls-2" cx="351.72" cy="354.28" rx="30.7" ry="8.19" transform="translate(-92.26 126.03) rotate(-18)"/><path class="cls-2" d="M307.72,241a7.92,7.92,0,0,0,5.91.7c6.9-2.24,8.88-16.42,5.91-35h-3.85c2.75,18.12.72,31.83-6.06,34A6.15,6.15,0,0,1,307.72,241Z"/><line class="cls-3" x1="251.88" y1="132.47" x2="251.88" y2="109.49"/><line class="cls-3" x1="230.96" y1="117.86" x2="239.4" y2="132.47"/><line class="cls-3" x1="272.4" y1="117.86" x2="263.96" y2="132.47"/></g></svg>