<svg xmlns="http://www.w3.org/2000/svg" viewBox="0 0 500 500"><defs><style>.cls-1{fill:#234f8e;}.cls-2{fill:#fff;}.cls-3{fill:none;stroke:#fff;stroke-miterlimit:10;stroke-width:10px;}</style></defs><g id="circles"><circle class="cls-1" cx="249.13" cy="251.14" r="237.55"/></g><g id="Layer_4" data-name="Layer 4"><path class="cls-2" d="M420.72,255.1a29.66,29.66,0,0,0-5.19-8.45c-4.36-5-10-8.86-15.77-12-17-9.39-47.1-12.63-56.61-13.44a11.26,11.26,0,0,1-5.47-2c-4-2.79-8-5.47-12.19-8A189.43,189.43,0,0,0,288.64,194c-15.18-5.28-30.6-9.86-46.61-11.8-17.23-2.09-34.73-1.8-52-1-8.49.42-17,1.17-25.24,3.47-16.47,4.62-32.42,11.22-48.09,18-7.56,3.29-15.12,6.7-23.31,8.16L81.2,213.06a15.24,15.24,0,0,1-1,10.53,31.82,31.82,0,0,0-2.58,15.52s.81,6.35-2.73,8.36a6,6,0,0,0-2.9,5.95s.09,1.77-.4,9.33a15,15,0,0,0,2.75,10.46c2.51,3.15,5.93,3.62,9.59,4.53,8.62,2.13,17.23,4.28,25.85,6.39-1-.25-.29-6.29-.2-7.18a39.93,39.93,0,0,1,1.4-7.11,34.26,34.26,0,0,1,6.66-12.73c7.93-9.3,21.53-12.83,33.18-9.71,12.47,3.33,22.91,13,25.17,26,.13.71,1.19,12.15.29,12.15H328.2a13.43,13.43,0,0,1-.89-4.48c-.87-13,7-26,18.61-31.55a34.19,34.19,0,0,1,20.68-2.82c13.73,2.48,25.74,13.5,27.73,27.56.1.7.69,11.3-.44,11.29,18.41.16,25-4.5,25-4.5.47-.34.73-2.21.88-2.77a59.86,59.86,0,0,0,1.83-11.21C421.87,263.32,422.18,258.65,420.72,255.1ZM211,218.74a2.71,2.71,0,0,1-2.85,2.71c-9.42-.49-40-2.71-58.63-11.32-5.07-2.34,7.32-8.53,9-9.37,15.4-7.55,32.94-8.51,49.8-8.19a2.71,2.71,0,0,1,2.65,2.71Zm99.47,2.84H226.62A2.62,2.62,0,0,1,224,219V195.4a2.63,2.63,0,0,1,2.76-2.63c45.43,2.61,74.65,19.48,84.52,26.13A1.46,1.46,0,0,1,310.47,221.58Z"/><circle class="cls-3" cx="143.08" cy="280.35" r="20.25"/><circle class="cls-3" cx="361.08" cy="280.35" r="20.25"/></g></svg>