<svg xmlns="http://www.w3.org/2000/svg" viewBox="0 0 500 500"><defs><style>.cls-1{fill:#234f8e;}.cls-2,.cls-3{fill:#fff;}.cls-3{font-size:120px;font-family:HelveticaNeue-Medium, Helvetica Neue;font-weight:500;letter-spacing:0.1em;}</style></defs><g id="circles"><circle class="cls-1" cx="250" cy="250" r="237.55"/></g><g id="Layer_4" data-name="Layer 4"><path class="cls-2" d="M374.1,179.39H125.9a2.5,2.5,0,0,1-1.26-4.66l120.93-70.34a8.81,8.81,0,0,1,8.85,0l120.94,70.34A2.5,2.5,0,0,1,374.1,179.39Z"/><rect class="cls-2" x="149.23" y="192.61" width="35.26" height="124.28"/><rect class="cls-2" x="123.4" y="330.11" width="253.21" height="9.45" rx="2"/><rect class="cls-2" x="110.69" y="352.11" width="278.62" height="18.7" rx="4"/><rect class="cls-2" x="142.93" y="192.61" width="47.86" height="13.21" rx="3"/><rect class="cls-2" x="142.93" y="303.68" width="47.86" height="13.21" rx="3"/><rect class="cls-2" x="319.23" y="192.61" width="35.26" height="124.28"/><rect class="cls-2" x="312.93" y="192.61" width="47.86" height="13.21" rx="3"/><rect class="cls-2" x="312.93" y="303.68" width="47.86" height="13.21" rx="3"/><text class="cls-3" transform="translate(220.14 297.49)">$</text></g></svg>