<svg xmlns="http://www.w3.org/2000/svg" viewBox="0 0 500 500"><defs><style>.cls-1{fill:#33aa63;}.cls-2{fill:#fff;}</style></defs><g id="circles"><circle class="cls-1" cx="251.88" cy="250" r="237.55"/></g><g id="Layer_4" data-name="Layer 4"><path class="cls-2" d="M240.4,195.17a1.31,1.31,0,0,1-2.14,1.09c-7.34-6-35.25-25-69.38.81-33.9,25.6-37.15,75.58-37.36,90a9.73,9.73,0,0,1-2.83,6.73c-5.92,6-19.35,21.19-23.26,39.14a16.28,16.28,0,0,0,2.8,13l1.36,1.87a7.42,7.42,0,0,0,6,3.05h41.08a4.56,4.56,0,0,0,4.52-5.31c-.57-3.08-2.44-7-7.72-10a1.58,1.58,0,0,1,.05-2.77c7.09-3.62,24.81-14.57,24.59-33.54a3.22,3.22,0,0,1,2-3c5.58-2.37,20.59-10.16,22.22-26a27.37,27.37,0,0,1,.79-3.89c1.66-5.85,6.08-20.36,10.6-25.81a1.27,1.27,0,0,1,2.25.75c.19,4.24.13,13-2.78,20a2.84,2.84,0,0,0,1.9,3.85c9.74,2.49,39.08,7.8,64.13-10.29C309.73,232.71,308,233.34,308,233.34l-6.47-13.26a1,1,0,0,1,1.51-1.14l18.42,16.83a5.86,5.86,0,0,1,1.81,5.4c-1.82,9.65-6.3,38.94,3.19,53.69,9.26,14.41,19.63,29.09,23.26,34.19a4,4,0,0,1,.4,4h0a3.3,3.3,0,0,1-4.87,1.39l-4.95-3.37a1.8,1.8,0,0,0-2.82,1.37,21.17,21.17,0,0,0,5,15.05,9.66,9.66,0,0,0,7.39,3.38h13.29a6.83,6.83,0,0,0,4.94-2.12l9.41-9.94a13.56,13.56,0,0,0,3.72-9.65l-1.05-46.21a18.74,18.74,0,0,0-2.15-8.32l-10.29-19.5a25.41,25.41,0,0,1-2.82-9.31c-.57-5.81-.78-15,2.65-20.32,5.3-8.27-6.36-27.78-6.36-27.78S348.38,176,322.39,183.8a.9.9,0,0,1-.78-1.6c3.21-2.23,9.12-4.76,18.88-3.88a27.6,27.6,0,0,1,15.19,5.94,26.12,26.12,0,0,1,5.37,6.05,6.8,6.8,0,0,0,6.67,3.12l5.41-.76a8,8,0,0,0,5.42-3.29l4.74-6.63a9.7,9.7,0,0,0,1.74-6.88,16.78,16.78,0,0,0-9.38-13.19,5.13,5.13,0,0,1-2.72-4.48c0-2.17.4-4.89,2.39-6.62a4.14,4.14,0,0,0,.68-5c-3.21-5.39-9.82-15.14-16.69-17.36a10.8,10.8,0,0,1-5.19-3.53,50.51,50.51,0,0,0-9.93-9.7,18.08,18.08,0,0,0-18.75-1.11c-5.19,2.71-12.86,8.06-21.21,18.42a38.06,38.06,0,0,1-3.76,4.06c-5.14,4.74-19.16,19.8-16.76,40.9a1.16,1.16,0,0,1-1.84,1.06c-2.32-1.73-5.7-5-6.08-9.41a2.13,2.13,0,0,0-3.16-1.71c-6.58,3.7-21.33,11.35-36.65,14.9a1.47,1.47,0,0,0-.69,2.49C237.33,187.63,240.16,191.13,240.4,195.17Z"/><path class="cls-2" d="M208.51,274.41A37.56,37.56,0,0,1,188,300.69a5,5,0,0,0-2.75,3.83c-.51,4.26-2.28,12.65-8.33,17.67a6.11,6.11,0,0,0-2,6.08l1.62,7.08a15.11,15.11,0,0,0,5.85,8.88l6.1,4.45a11.31,11.31,0,0,0,6.69,2.18h35.69a3.9,3.9,0,0,0,3.24-6.08c-2.09-3-5.82-6.56-12.44-8.77a5.6,5.6,0,0,1-3.72-4.33c-.63-3.59-1.08-9.14,1.21-12.64,3.16-4.82.14-16.8-4.93-20.71a2.46,2.46,0,0,1-.37-3.44c2.8-3.56,7.65-10.63,7.67-16.76a4.54,4.54,0,0,0-3.37-4.37l-6-1.62A3,3,0,0,0,208.51,274.41Z"/><path class="cls-2" d="M314.41,241.67c-1.68,10.28-5.55,41.07,5.15,58.26a6.74,6.74,0,0,1,.8,5.46c-2.58,9-11.59,35.06-31.34,44.1a15.15,15.15,0,0,1-6.33,1.37H266.31a5.35,5.35,0,0,1-5.17-4c-1.38-5.24-2.77-14.54,2.23-20.91a2.13,2.13,0,0,1,3.61.42c1.44,3.05,4.1,7.14,7.32,4.76,4.88-3.6-8.27-34.57,0-50.91,6.81-13.44,30-33.19,38-39.77A1.31,1.31,0,0,1,314.41,241.67Z"/></g></svg>