<svg xmlns="http://www.w3.org/2000/svg" viewBox="0 0 500 500"><defs><style>.cls-1{fill:#ec66ff;}.cls-2{fill:#fff;}</style></defs><g id="circles"><circle class="cls-1" cx="250.87" cy="250" r="237.55"/></g><g id="Layer_4" data-name="Layer 4"><path class="cls-2" d="M291,185.11l-21.24-13a6,6,0,0,0-7.41.91,21.8,21.8,0,0,1-36.31-22.26,6,6,0,0,0-2.55-7l-21.24-13a6,6,0,0,0-8.25,2l-15.38,25.1,12.68,7.78a5.21,5.21,0,1,1-5.44,8.88l-12.69-7.77-52.69,86,12.69,7.78a5.21,5.21,0,1,1-5.45,8.88l-12.68-7.77-15.39,25.1a6,6,0,0,0,2,8.25l21.24,13a6,6,0,0,0,7.41-.92,21.8,21.8,0,0,1,36.31,22.26,6,6,0,0,0,2.55,7l8.12,5V299.68l-3.74-2.29a5.22,5.22,0,0,1,1.5-9.51,5.13,5.13,0,0,1,2.24-.05V257.76a3.74,3.74,0,0,1,0-1.79V234.1l-1.66-2.64a4,4,0,0,1,3.7-6l1.63.15a8.05,8.05,0,0,1,4.49-1.35h9.36l6.62-7.94a3.94,3.94,0,0,1,6.88,1.65l1.42,6.29h57.34l-7.59-4.65a5.21,5.21,0,0,1,5.45-8.89l12.69,7.79L293,193.36A6,6,0,0,0,291,185.11ZM162.72,284.63a5.19,5.19,0,0,1-7.16,1.72L145.12,280a5.21,5.21,0,0,1,5.45-8.89l10.43,6.4a5.22,5.22,0,0,1,1.72,7.16Zm58.14-94.85a5.21,5.21,0,0,1-7.17,1.72l-10.44-6.39a5.21,5.21,0,0,1,5.45-8.89l10.44,6.4a5.24,5.24,0,0,1,1.72,7.16Zm28.43,17.43a5.22,5.22,0,0,1-7.17,1.72l-10.43-6.4a5.21,5.21,0,0,1,5.44-8.88l10.44,6.4A5.2,5.2,0,0,1,249.29,207.21Z"/><path class="cls-2" d="M375.36,270.83A6,6,0,0,0,380,265v-24.9a6,6,0,0,0-6-6H344.57V249a5.21,5.21,0,1,1-10.42,0V234.08H233.32V249a5.21,5.21,0,0,1-10.42,0V234.08H193.46a6,6,0,0,0-6,6V265a6,6,0,0,0,4.65,5.85,21.79,21.79,0,0,1,0,42.58,6,6,0,0,0-4.65,5.84v24.91a6,6,0,0,0,6,6H222.9V335.27a5.21,5.21,0,0,1,10.42,0v14.89H334.15V335.27a5.21,5.21,0,0,1,10.42,0v14.89H374a6,6,0,0,0,6-6V319.25a6,6,0,0,0-4.65-5.84,21.79,21.79,0,0,1,0-42.58Zm-142,44.08a5.21,5.21,0,1,1-10.42,0V302.67a5.21,5.21,0,1,1,10.42,0Zm0-33.34a5.22,5.22,0,0,1-5.21,5.2,5.2,5.2,0,0,1-5.21-5.2V269.33a5.21,5.21,0,0,1,10.42,0Zm75.49,9.21-8.19,8a4,4,0,0,0-1.13,3.5l1.93,11.27a4,4,0,0,1-5.73,4.16l-10.12-5.32a3.91,3.91,0,0,0-3.67,0l-10.12,5.32a4,4,0,0,1-5.73-4.16L268,302.26a4,4,0,0,0-1.13-3.5l-8.19-8a3.94,3.94,0,0,1,2.19-6.72l11.31-1.65a3.94,3.94,0,0,0,3-2.17L280.19,270a4,4,0,0,1,7.09,0l5.06,10.25a3.94,3.94,0,0,0,3,2.17l11.31,1.65A3.94,3.94,0,0,1,308.81,290.78Zm35.76,24.13a5.21,5.21,0,1,1-10.42,0V302.67a5.21,5.21,0,1,1,10.42,0Zm0-33.34a5.22,5.22,0,0,1-5.21,5.2,5.21,5.21,0,0,1-5.21-5.2V269.33a5.21,5.21,0,0,1,10.42,0Z"/></g></svg>