<svg xmlns="http://www.w3.org/2000/svg" viewBox="0 0 500 500"><defs><style>.cls-1{fill:#ff8440;}.cls-2{fill:#fff;}</style></defs><g id="circles"><circle class="cls-1" cx="250" cy="250" r="237.55"/></g><g id="Layer_4" data-name="Layer 4"><path class="cls-2" d="M192.55,348.91a2,2,0,0,1,1,3.2,19.8,19.8,0,0,1-35.05-12.6,20.23,20.23,0,0,1,.38-3.84l.26-1.35a2,2,0,0,1,3.3-1C172,342.71,186.53,347.32,192.55,348.91Z"/><path class="cls-2" d="M237.44,215.77c-10.07,11.59-24.13,33.31-30.56,68.87a3.23,3.23,0,0,1-4.67,2.29,86,86,0,0,1-24.82-19.43,8.66,8.66,0,0,1-1.76-8.49c5.13-15.48,14-36.57,28-53.43a7.83,7.83,0,0,1,6.53-2.84,63.4,63.4,0,0,1,26.4,7.71A3.49,3.49,0,0,1,237.44,215.77Z"/><path class="cls-2" d="M336.32,335.67a20.23,20.23,0,0,1,.38,3.84,19.78,19.78,0,0,1-12.62,18.43c-10.19,3.95-22.41-1.44-25.91-11.95-2.36-7.05-3-15.22-4.21-22.55-5.3-32.21-8.13-64.81-24.79-93.68q-2.43-4.08-5.15-8c-18.8-26.75-55-36.61-83.75-19.13C161.67,214,155.74,232.91,159.8,251s16.38,34,33.93,44.82c.74.45,1.49.89,2.24,1.32.25.15.51.29.77.43,2.35,1.32,4.86,2.59,7.58,3.81a2.51,2.51,0,0,0,.23.11c2.71,1.21,5.49,2.31,8.38,3.28A109.86,109.86,0,0,0,237.42,310,118.13,118.13,0,0,0,276,307.57a3.52,3.52,0,0,1,4.26,2.84l5.08,29.67a3.66,3.66,0,0,1-2.76,4.18A151.7,151.7,0,0,1,232,346.93,143.76,143.76,0,0,1,198.52,339a.67.67,0,0,1-.15-.06c-22.89-7.79-36.14-20.37-36.14-20.37-12.26-11.62-23.58-22.76-31.79-38-7.79-14.44-13-30.81-13.53-47.28-.86-26.4,10.39-53.12,32.64-68.17,29.41-19.9,67.5-16.35,96.87,1.68,31.19,19.13,56,46.6,69,81a240.18,240.18,0,0,1,7.62,24.31c4.19,16.05,7.1,32.4,10.3,48.66Z"/><path class="cls-2" d="M381.38,226.22c.24,19.64-6.24,39.72-16.08,56.58a148.79,148.79,0,0,1-17.71,24.56,3.22,3.22,0,0,1-5.52-1.46c-2.18-9.38-6.39-27.62-8.38-36.15a11.53,11.53,0,0,1,.77-7.25,78.66,78.66,0,0,0,2.91-9.1c3.56-12.3,1.48-26.45-4.55-37.75a41.93,41.93,0,0,0-12.69-14.74,28.81,28.81,0,0,0-12.06-4.76,50.31,50.31,0,0,0-7.35-.65,3.24,3.24,0,0,1-2.28-.93,1.11,1.11,0,0,1-.15-.16c-4.86-5.77-18.6-21-35.23-29.27a2.75,2.75,0,0,1-.09-4.9,83.1,83.1,0,0,1,38.83-9.53c29.08,0,56.44,15.46,70.25,39.69A73.36,73.36,0,0,1,381.38,226.22Z"/></g></svg>