<svg xmlns="http://www.w3.org/2000/svg" viewBox="0 0 500 500"><defs><style>.cls-1{fill:#234f8e;}.cls-2{fill:#fff;}</style></defs><g id="circles"><circle class="cls-1" cx="251.88" cy="250" r="237.55"/></g><g id="Layer_4" data-name="Layer 4"><path class="cls-2" d="M205.21,255.28l-72,63.84a3.35,3.35,0,0,1-5.58-2.5V186.55A3.35,3.35,0,0,1,133.2,184l72,63.71A5,5,0,0,1,205.21,255.28Z"/><path class="cls-2" d="M351.86,334.17H147.93a3.35,3.35,0,0,1-2.22-5.86l70.74-62.74a6.7,6.7,0,0,1,8.89,0l21.33,18.88a5,5,0,0,0,6.67,0l21.21-18.78a6.71,6.71,0,0,1,8.9,0l70.63,62.64A3.35,3.35,0,0,1,351.86,334.17Z"/><path class="cls-2" d="M372.37,186.55V316.8a3.35,3.35,0,0,1-5.58,2.51l-72.1-63.93a5,5,0,0,1,0-7.53L366.8,184A3.35,3.35,0,0,1,372.37,186.55Z"/><path class="cls-2" d="M358.91,171.69,254.45,264.15a6.72,6.72,0,0,1-8.89,0L141.09,171.69a3.35,3.35,0,0,1,2.22-5.86H356.69A3.35,3.35,0,0,1,358.91,171.69Z"/></g></svg>