<svg xmlns="http://www.w3.org/2000/svg" viewBox="0 0 500 500"><defs><style>.cls-1{fill:#1caeb5;}.cls-2{fill:#fff;}</style></defs><g id="circles"><circle class="cls-1" cx="250" cy="248.56" r="237.55"/></g><g id="Layer_4" data-name="Layer 4"><path class="cls-2" d="M137.49,360.5H321.21a9.55,9.55,0,0,0,5.58-1.8l34.54-24.77a1.7,1.7,0,0,0-1-3.09H176.67a9.91,9.91,0,0,0-5.81,1.87l-34.38,24.65A1.73,1.73,0,0,0,137.49,360.5Z"/><path class="cls-2" d="M231,303.85v16.33H186.61a1.15,1.15,0,0,1-.65-2.09l18.31-12.62a9.11,9.11,0,0,1,5.19-1.62Z"/><path class="cls-2" d="M265.74,316v4.16h-42V303.85h21.44a9.42,9.42,0,0,1,5.34,1.66Z"/><path class="cls-2" d="M267.3,99.84h0a4.47,4.47,0,0,1,4.47,4.47V318.76a1.42,1.42,0,0,1-1.42,1.42h-7.53a0,0,0,0,1,0,0V104.32A4.47,4.47,0,0,1,267.3,99.84Z"/><path class="cls-2" d="M252.63,120.92v170a2.35,2.35,0,0,1-2.35,2.35H128.4a1.68,1.68,0,0,1-1.37-2.66l123.2-170.44A1.33,1.33,0,0,1,252.63,120.92Z"/><path class="cls-2" d="M282.11,164.76v126a2.46,2.46,0,0,0,2.47,2.47H370a1.37,1.37,0,0,0,1.14-2.15L284.56,164A1.34,1.34,0,0,0,282.11,164.76Z"/></g></svg>