<svg xmlns="http://www.w3.org/2000/svg" viewBox="0 0 500 500"><defs><style>.cls-1{fill:#20633b;}.cls-2{fill:#fff;}</style></defs><g id="circles"><circle class="cls-1" cx="249.88" cy="250" r="237.55"/></g><g id="Layer_4" data-name="Layer 4"><path class="cls-2" d="M411.07,270v14.47c0,1.4-.79,2.43-1.63,2.13l-1.84-.67-3.54-1.31c-1-.37-1.76-1.86-1.76-3.58V273.4c0-1.71.73-3.2,1.76-3.57l3.41-1.25,2-.73C410.28,267.55,411.07,268.59,411.07,270Z"/><path class="cls-2" d="M109,273v8.45a2.66,2.66,0,0,1-2.66,2.67H94.4V270.32h11.94A2.67,2.67,0,0,1,109,273Z"/><path class="cls-2" d="M106.34,284.11H94.4V270.32h11.94A2.67,2.67,0,0,1,109,273v8.45A2.66,2.66,0,0,1,106.34,284.11Z"/><path class="cls-2" d="M407.6,271.43v14.48l-3.54-1.31c-1-.37-1.76-1.86-1.76-3.58V273.4c0-1.71.73-3.2,1.76-3.57l3.41-1.25C407.56,269.5,407.6,270.45,407.6,271.43Z"/><path class="cls-2" d="M383.45,301.72H336.9a23.49,23.49,0,0,1,46.55,0Z"/><path class="cls-2" d="M194.67,301.72H148.11a23.5,23.5,0,0,1,46.56,0Z"/><path class="cls-2" d="M402.58,287c-1.44-.51-2.46-2.47-2.46-4.72V272.19c0-2.27,1-4.22,2.46-4.72l4.53-1.55c-4.25-23.11-35.82-23.41-54.68-27.67a8.29,8.29,0,0,1-8.29-8.31V198.33a23.56,23.56,0,0,0-23.55-23.55H118A23.55,23.55,0,0,0,94.4,198.33v69.75h14.39a2.66,2.66,0,0,1,2.66,2.66v12.95a2.67,2.67,0,0,1-2.66,2.67H94.4v6.79a8.57,8.57,0,0,0,8.56,8.57h36.25A3.28,3.28,0,0,0,142.4,299a29.58,29.58,0,0,1,58,0,3.28,3.28,0,0,0,3.2,2.68H328a3.29,3.29,0,0,0,3.21-2.69,29.58,29.58,0,0,1,58,0,3.29,3.29,0,0,0,3.21,2.69H399a8.57,8.57,0,0,0,8.56-8.57v-4.46Zm-300.5-91.66a1.79,1.79,0,1,1,0-3.58h214a1.79,1.79,0,1,1,0,3.58ZM230.14,206v23.3a4.29,4.29,0,0,1-4.28,4.29h-23.3a4.28,4.28,0,0,1-4.28-4.29V206a4.27,4.27,0,0,1,4.28-4.28h23.3A4.28,4.28,0,0,1,230.14,206Zm-42.82,0v23.3a4.29,4.29,0,0,1-4.28,4.29h-23.3a4.28,4.28,0,0,1-4.28-4.29V206a4.27,4.27,0,0,1,4.28-4.28H183A4.28,4.28,0,0,1,187.32,206Zm-42.81,0v23.3a4.3,4.3,0,0,1-4.29,4.29h-23.3a4.28,4.28,0,0,1-4.28-4.29V206a4.27,4.27,0,0,1,4.28-4.28h23.3A4.29,4.29,0,0,1,144.51,206ZM273,264.87a3.21,3.21,0,0,1-3.21,3.21H115.85a3.21,3.21,0,0,1-3.21-3.21V262a3.21,3.21,0,0,1,3.21-3.22h153.9A3.22,3.22,0,0,1,273,262Zm0-17.13a3.22,3.22,0,0,1-3.21,3.22H115.85a3.22,3.22,0,0,1-3.21-3.22v-2.83a3.2,3.2,0,0,1,3.21-3.21h153.9a3.21,3.21,0,0,1,3.21,3.21Zm0-18.4a4.29,4.29,0,0,1-4.28,4.29h-23.3a4.29,4.29,0,0,1-4.29-4.29V206a4.28,4.28,0,0,1,4.29-4.28h23.3A4.28,4.28,0,0,1,273,206Zm25.81,60.16a3.21,3.21,0,0,1-3.21,3.21h-8.34A3.21,3.21,0,0,1,284,289.5V205a3.21,3.21,0,0,1,3.21-3.21h8.34a3.21,3.21,0,0,1,3.21,3.21Zm19.27,0a3.21,3.21,0,0,1-3.21,3.21h-8.34a3.21,3.21,0,0,1-3.21-3.21V205a3.21,3.21,0,0,1,3.21-3.21h8.34A3.21,3.21,0,0,1,318,205Zm22-58a2.15,2.15,0,0,1-2.14,2.15h-2.6a6.43,6.43,0,0,1-6.43-6.43v-19a6.43,6.43,0,0,1,6.43-6.42h2.6a2.14,2.14,0,0,1,2.14,2.14Z"/><path class="cls-2" d="M412.14,270v14.47c0,1.4-.79,2.43-1.63,2.13l-1.84-.67-3.54-1.31c-1-.37-1.76-1.86-1.76-3.58V273.4c0-1.71.73-3.2,1.76-3.57l3.41-1.25,2-.73C411.35,267.55,412.14,268.59,412.14,270Z"/><path class="cls-2" d="M194.89,304.93a23.5,23.5,0,0,1-47,0,22.67,22.67,0,0,1,.22-3.21,23.5,23.5,0,0,1,46.56,0A22.67,22.67,0,0,1,194.89,304.93Z"/><path class="cls-2" d="M194.89,304.93a23.5,23.5,0,0,1-47,0,22.67,22.67,0,0,1,.22-3.21,23.5,23.5,0,0,1,46.56,0A22.67,22.67,0,0,1,194.89,304.93Z"/><path class="cls-2" d="M383.68,304.93a23.51,23.51,0,0,1-47,0,22.67,22.67,0,0,1,.23-3.21,23.49,23.49,0,0,1,46.55,0A22.67,22.67,0,0,1,383.68,304.93Z"/><path class="cls-2" d="M109,273v8.45a2.66,2.66,0,0,1-2.66,2.67H92.9a2.67,2.67,0,0,1-2.67-2.67V273a2.68,2.68,0,0,1,2.67-2.67h13.44A2.67,2.67,0,0,1,109,273Z"/><path class="cls-2" d="M383.68,304.93a23.51,23.51,0,0,1-47,0,22.67,22.67,0,0,1,.23-3.21,23.49,23.49,0,0,1,46.55,0A22.67,22.67,0,0,1,383.68,304.93Z"/></g></svg>