<svg xmlns="http://www.w3.org/2000/svg" viewBox="0 0 500 500"><defs><style>.cls-1{fill:#20633b;}.cls-2{fill:#fff;}.cls-3{fill:#ddd;}</style></defs><g id="circles"><circle class="cls-1" cx="246.13" cy="250" r="237.55"/></g><g id="Layer_4" data-name="Layer 4"><path class="cls-2" d="M233,314.62a35.66,35.66,0,0,1-2.11,12.1H164.23A35.46,35.46,0,1,1,233,314.62Z"/><path class="cls-2" d="M354,145.58H136.77a15.29,15.29,0,0,0-15.29,15.3V311.42a15.29,15.29,0,0,0,15.29,15.3h8.45a5,5,0,0,0,5-5.66,50.72,50.72,0,0,1-.43-6.44,47.81,47.81,0,1,1,95.19,6.47,5,5,0,0,0,5,5.63H354a15.31,15.31,0,0,0,15.31-15.3V160.88A15.31,15.31,0,0,0,354,145.58Zm-190.36,88.2a7,7,0,1,1,0-13.95h97.55a7,7,0,1,1,0,13.95Zm167.11,38a6.93,6.93,0,0,1-4.93,2H252.35a7,7,0,1,1,0-13.95H325.8a7,7,0,0,1,4.93,11.91Zm1.34-80a6.94,6.94,0,0,1-4.93,2H163.62a7,7,0,1,1,0-13.95H327.14a7,7,0,0,1,7,7A6.89,6.89,0,0,1,332.07,191.74Z"/><path class="cls-3" d="M233,314.62a35.27,35.27,0,0,1-14.72,28.75A35.45,35.45,0,1,1,233,314.62Z"/><path class="cls-2" d="M233,314.62a35.27,35.27,0,0,1-14.72,28.75A35.45,35.45,0,1,1,233,314.62Z"/><path class="cls-2" d="M219.43,394.86l-17.21-12.53a7.91,7.91,0,0,0-9.31,0l-17.2,12.53a3,3,0,0,1-4.76-2.79l3.61-29.93a3.84,3.84,0,0,1,5.22-3.13,48,48,0,0,0,34.22.52,5,5,0,0,1,6.74,4.05l3.45,28.49A3,3,0,0,1,219.43,394.86Z"/></g></svg>