<svg xmlns="http://www.w3.org/2000/svg" viewBox="0 0 500 500"><defs><style>.cls-1{fill:#279eff;}.cls-2{fill:#fff;}</style></defs><g id="circles"><circle class="cls-1" cx="250" cy="250" r="237.55"/></g><g id="Layer_4" data-name="Layer 4"><polygon class="cls-2" points="286.17 259.35 286.21 259.35 286.2 259.7 286.17 259.35"/><path class="cls-2" d="M408.65,297.82l-43.42-13.64-3-.93-22.51-7.08-2.82-.88-10.16-3.2-12.43-3.91h0l-2.77-.87-6.82-2.15-15.59-4.9h0l-3-.93-14.74-4.64a2.41,2.41,0,0,0-3.14,2.28l-.69,70.19a55,55,0,0,1-3.12,17.74l-3,8.64a2.71,2.71,0,0,0,.78,2.95l42.41,36.82a4.79,4.79,0,0,1,1.63,3.3l.6,9.1a.74.74,0,0,1-1,.73L252.17,384.8a.69.69,0,0,0-.95.64v22.2a2.17,2.17,0,0,1-1.52,2.11,2.08,2.08,0,0,1-2.66-2V385.55a.76.76,0,0,0-1-.71l-53.7,21.65a.69.69,0,0,1-.94-.68l.61-9.22a4.68,4.68,0,0,1,1.6-3.23L236,356.52a2.73,2.73,0,0,0,.79-3l-3-8.61a55.08,55.08,0,0,1-3.13-17.75l-.68-70.59a2.11,2.11,0,0,0-2.75-2l-15.14,4.76h0l-3,.94v0l-22.41,7.05h0l-2.79.88v0l-22.59,7.11-2.82.88-11,3.44L136,283.25l-3,.93L89.55,297.84a.68.68,0,0,1-.87-.84l5.1-18.79a4.32,4.32,0,0,1,1.78-2.47l51.78-34.41,34.11-22.68,4.13-2.74,19.28-12.82L229,187a2.34,2.34,0,0,0,1-1.94V121a31.06,31.06,0,0,1,7.31-20L243,94.31h0l1.89-2.24h0c2-1.81,5.36-3.42,9.18.77l0,0,.69.82.08.1h0l5.89,7a31.82,31.82,0,0,1,7.48,20.49v63.83a2.37,2.37,0,0,0,1.06,2l24.13,16,19.28,12.82,19.13,12.71,19.11,12.71,51.77,34.4a4.39,4.39,0,0,1,1.79,2.49l5.08,18.71A.73.73,0,0,1,408.65,297.82Z"/></g></svg>