<svg xmlns="http://www.w3.org/2000/svg" viewBox="0 0 500 500"><defs><style>.cls-1{fill:#234f8e;}.cls-2{fill:#fff;}</style></defs><g id="circles"><circle class="cls-1" cx="249.88" cy="250" r="237.55"/></g><g id="Layer_4" data-name="Layer 4"><path class="cls-2" d="M338.64,224.48c-2.38-6.59-6-12.86-6.88-19.87-1.7-13.14,4.39-24.81,14-33.22a4.23,4.23,0,0,0,0-6.26l-31.05-28.58a5.09,5.09,0,0,0-5.9-.69c-7.84,4.32-29.69,9.86-53.26-11.89a4.23,4.23,0,0,0-5.73,0c-23.54,21.74-45.38,16.22-53.25,11.9a5.1,5.1,0,0,0-5.91.69l-31,28.55a4.23,4.23,0,0,0,.07,6.29C182.53,191.15,171,214.15,171,214.15q-2.66,8.34-5.32,16.67c-7.48,23.48-14.42,46.12-8,70.84,6.24,24,23.82,42.59,48.12,48.46,25.13,6.07,37.57,24.09,43.09,28.79a5.88,5.88,0,0,0,7.62,0c5.53-4.7,18-22.72,43.09-28.79a65.63,65.63,0,0,0,48.42-47C354.79,277.84,347.32,248.44,338.64,224.48Zm-34.08,20-20.11,19.61a5.17,5.17,0,0,0-1.49,4.6l4.75,27.68a5.2,5.2,0,0,1-7.55,5.48l-24.87-13.06a5.16,5.16,0,0,0-4.83,0l-24.87,13.06A5.2,5.2,0,0,1,218,296.4l4.75-27.68a5.17,5.17,0,0,0-1.49-4.6l-20.11-19.61a5.2,5.2,0,0,1,2.88-8.87l27.79-4a5.19,5.19,0,0,0,3.92-2.84l12.44-25.19a5.19,5.19,0,0,1,9.31,0L270,228.76a5.19,5.19,0,0,0,3.92,2.84l27.79,4A5.2,5.2,0,0,1,304.56,244.51Z"/></g></svg>