<svg xmlns="http://www.w3.org/2000/svg" viewBox="0 0 500 500"><defs><style>.cls-1{fill:#939393;}.cls-2{fill:#fff;}</style></defs><g id="circles"><circle class="cls-1" cx="251.88" cy="250" r="237.55"/></g><g id="Layer_4" data-name="Layer 4"><path class="cls-2" d="M252.87,118A94.88,94.88,0,0,0,158,212.85c0,34.23,21,60.42,38.36,88.09q24,38.13,47.88,76.32a10.16,10.16,0,0,0,17,.33l.09-.13,20.72-33q21.32-34,42.64-68c12.14-19.44,23.06-40.1,23.06-63.61A94.89,94.89,0,0,0,252.87,118Zm0,132a40.19,40.19,0,1,1,40.19-40.19A40.18,40.18,0,0,1,252.87,250Z"/></g></svg>