<svg xmlns="http://www.w3.org/2000/svg" viewBox="0 0 500 500"><defs><style>.cls-1{fill:#9569ff;}.cls-2{fill:#fff;}</style></defs><g id="circles"><circle class="cls-1" cx="246.13" cy="250" r="237.55"/></g><g id="Layer_4" data-name="Layer 4"><path class="cls-2" d="M367.59,260.61a4.77,4.77,0,0,1,4.77,5.14c-.12,1.52-.29,3-.53,4.51-4.19,27.85-26.29,50.57-55.54,58.5a87.26,87.26,0,0,1-23,3c-28.28,0-53.09-13.3-67.11-33.32a67.66,67.66,0,0,1-8.51-16.54,63.91,63.91,0,0,1-2.88-11.68c-.24-1.49-.41-3-.53-4.51a4.77,4.77,0,0,1,4.77-5.14Z"/><rect class="cls-2" x="137.9" y="159.21" width="62.26" height="114.76" rx="4.38"/><path class="cls-2" d="M226.23,319.59v52.1H158.32a8.11,8.11,0,0,1-8-6.81l0-77.08a4.21,4.21,0,0,1,4.16-4.89h46.21a6.13,6.13,0,0,1,5.94,4.5A69.46,69.46,0,0,0,226.23,319.59Z"/><rect class="cls-2" x="132.47" y="128.31" width="73.1" height="21.96" rx="4.36"/><rect class="cls-2" x="208.37" y="232.95" width="169.93" height="18.65" rx="6.1"/><path class="cls-2" d="M330.84,371.69H226.23v-52.1c15.94,15.14,39.21,24.68,65.15,24.68a102.18,102.18,0,0,0,26.13-3.36,4.71,4.71,0,0,1,5.46,2.48l11.21,23A3.71,3.71,0,0,1,330.84,371.69Z"/><rect class="cls-2" x="209.33" y="168.87" width="12.54" height="22.1" rx="6.27"/></g></svg>