<svg xmlns="http://www.w3.org/2000/svg" viewBox="0 0 500 500"><defs><style>.cls-1{fill:#279eff;}.cls-2{fill:#fff;}.cls-3,.cls-4,.cls-5{fill:none;stroke:#fff;stroke-miterlimit:10;}.cls-3{stroke-width:10px;}.cls-4{stroke-width:8px;}.cls-5{stroke-linecap:round;stroke-width:12px;}</style></defs><g id="circles"><circle class="cls-1" cx="252" cy="250" r="237.55"/></g><g id="Layer_4" data-name="Layer 4"><path class="cls-2" d="M265,128.52H180a25.84,25.84,0,0,0-25.83,25.83V352H290.85V154.35A25.83,25.83,0,0,0,265,128.52Zm1.24,84.66a7.17,7.17,0,0,1-7.18,7.18H186a7.17,7.17,0,0,1-7.18-7.18V161.49a7.17,7.17,0,0,1,7.18-7.18h73.14a7.17,7.17,0,0,1,7.18,7.18Z"/><rect class="cls-3" x="111.52" y="351.96" width="281.29" height="19.52" rx="3.55"/><path class="cls-4" d="M290.85,240.24h5.61a13.92,13.92,0,0,1,13.92,13.92v34.35a13.92,13.92,0,0,0,13.92,13.92h0a13.92,13.92,0,0,0,13.92-13.92V227.64"/><path class="cls-5" d="M351.54,224.89H324.89a2.33,2.33,0,0,1-2.33-2.33v-26.2a2.33,2.33,0,0,1,1.39-2.14l26.65-11.74a2.34,2.34,0,0,1,3.28,2.13v37.95A2.33,2.33,0,0,1,351.54,224.89Z"/><path class="cls-5" d="M353.88,188.94V164a17.35,17.35,0,0,0-2.74-9.35l-12.92-20.19"/><g id="Medium-S"><path class="cls-2" d="M223.18,210.65a15.2,15.2,0,0,0,15.47-15.11c0-4.63-2.3-9.2-4.24-12.84l-7.81-14.57a3.75,3.75,0,0,0-3.42-2.11,3.71,3.71,0,0,0-3.42,2.11L212,182.7c-2,3.64-4.25,8.21-4.25,12.84A15.23,15.23,0,0,0,223.18,210.65Z"/></g></g></svg>