<svg xmlns="http://www.w3.org/2000/svg" viewBox="0 0 500 500"><defs><style>.cls-1{fill:#ec66ff;}.cls-2{fill:#fff;}</style></defs><g id="circles"><circle class="cls-1" cx="249.88" cy="250" r="237.55"/></g><g id="Layer_4" data-name="Layer 4"><ellipse class="cls-2" cx="249.88" cy="367.87" rx="51.02" ry="13.05"/><path class="cls-2" d="M249.87,259.82a55.7,55.7,0,0,0,6.74-.4,1,1,0,0,1,1.12,1V366.79H242V260.4a1,1,0,0,1,1.12-1A55.77,55.77,0,0,0,249.87,259.82Z"/><path class="cls-2" d="M306.46,119.08H193.29a7.05,7.05,0,0,0-6.55,4.51,105.78,105.78,0,0,0-7.08,38.46c0,48.47,31.43,87.77,70.22,87.77s70.21-39.3,70.21-87.77A105.78,105.78,0,0,0,313,123.59,7.05,7.05,0,0,0,306.46,119.08ZM249.88,239.45c-25.41,0-47.06-20-55.41-48.16a3,3,0,0,1,2.89-3.84h105a3,3,0,0,1,2.89,3.84C296.93,219.41,275.28,239.45,249.88,239.45Z"/><path class="cls-2" d="M253.86,231.64c-1.31.12-2.64.18-4,.18-21.47,0-39.63-15.46-45.65-36.75h11C220.87,215,234.17,229.84,253.86,231.64Z"/></g></svg>