<svg xmlns="http://www.w3.org/2000/svg" viewBox="0 0 500 500"><defs><style>.cls-1{fill:#33aa63;}.cls-2{fill:#fff;}.cls-3{fill:#b2a3a3;}</style></defs><g id="circles"><circle class="cls-1" cx="250.88" cy="251.14" r="237.55"/></g><g id="Layer_4" data-name="Layer 4"><path class="cls-2" d="M175.84,337.15l56.29,20.49-65.35,23.79A12.29,12.29,0,0,1,151,374.09L146.27,361a12.29,12.29,0,0,1,7.33-15.74Z"/><path class="cls-2" d="M236.53,315.05l14.34-5.21,61.51-22.39a64.59,64.59,0,0,1-12.26,13.29,71,71,0,0,1-33.18,14.94h0a78.64,78.64,0,0,1-9.9,1.08A84.27,84.27,0,0,1,236.53,315.05Z"/><path class="cls-2" d="M287.81,323.28l19.37,7.05-18.74,6.82-20.21,7.35-17.36,6.32-56.3-20.49L211.93,324l3.89-1.41a107.52,107.52,0,0,0,41.77,7.16q4.28-.18,8.5-.74A87.14,87.14,0,0,0,287.81,323.28Z"/><path class="cls-2" d="M348.13,315.42,324.53,324l-13.44-4.89-9.3-3.38c1-.63,1.9-1.31,2.82-2a68.57,68.57,0,0,0,23.49-32l6.87-2.5a12.29,12.29,0,0,1,15.75,7.34l4.77,13.1A12.29,12.29,0,0,1,348.13,315.42Z"/><path class="cls-3" d="M345.49,371l-4,11a12.11,12.11,0,0,1-6.53-.51l-84.1-30.61-56.3-20.49-41-14.91a12.29,12.29,0,0,1-7.33-15.75l4-10.95a12.1,12.1,0,0,1,6.52.51l22.84,8.32c8.76,11.16,21.9,19.6,36.2,25.05a107.52,107.52,0,0,0,41.77,7.16q4.28-.18,8.5-.74l22.35,8.13,49.69,18.09A12.28,12.28,0,0,1,345.49,371Z"/><path class="cls-2" d="M348.13,345.24l-40.95-14.91-19.37-7.05A87.14,87.14,0,0,1,266.09,329q-4.23.56-8.5.74a107.52,107.52,0,0,1-41.77-7.16c-14.3-5.45-27.44-13.89-36.2-25.05a51.28,51.28,0,0,1-8.94-16.9l-3.9-1.42A12.28,12.28,0,0,0,151,286.57l-.77,2.15-.61,1.65-3.38,9.3a12.29,12.29,0,0,0,7.33,15.75l41,14.91,56.3,20.49L335,381.43a12.11,12.11,0,0,0,6.53.51,12.28,12.28,0,0,0,9.22-7.85L355.49,361a14.2,14.2,0,0,0,.52-1.88A12.3,12.3,0,0,0,348.13,345.24Zm-97.26-35.4-63.71-23.19c11.77,14.92,30.79,24.62,49.37,28.4h0a84.27,84.27,0,0,0,20.5,1.71,78.64,78.64,0,0,0,9.9-1.08Z"/><path class="cls-3" d="M197.1,183.93l-.33-.1A.6.6,0,0,1,197.1,183.93Z"/><path class="cls-3" d="M319.72,199.22c-1-1.69-1.88-3.37-1.75-4.22-3.65,23.51-20.71,31.74-20.71,31.74-.57-4.92-1.28-9.63-2.1-14.14a16.74,16.74,0,0,1-1.78,1.14,240.63,240.63,0,0,0-3.87-24.54v0c-12.69-40.9-34.88-60.24-46.6-68a84.63,84.63,0,0,1,.74,25.79v0c.73,29.42-15.15,58.52-15.15,58.52C225,196.87,213,190.4,204.78,186.88c.08,1.28.12,2.24.11,2.67A29.33,29.33,0,0,1,200.61,204h0c-1.08,12.63-10,19.76-20.08,30.85-1,1.12-2,2.29-2.87,3.5a52.84,52.84,0,0,0,9.5,48.32c11.77,14.92,30.79,24.62,49.37,28.4h0a84.27,84.27,0,0,0,20.5,1.71,78.64,78.64,0,0,0,9.9-1.08h0a71,71,0,0,0,33.18-14.94,64.59,64.59,0,0,0,12.26-13.29C329.49,262.86,329.41,227.89,319.72,199.22Zm-45.56,97.64a34.32,34.32,0,0,1-20.38,7.58c-15,.7-35.44-8.61-38.25-25.83a24.09,24.09,0,0,1,4.85-19.07c4.51-5.44,8.52-8.86,8.74-15.26,0-1-.55-8.09-1.53-8.8,1.39.49,11.38,4.25,13.59,10.2,0,0,12.64-25.27,2.88-42,0,0,22.43,10,26.92,52,0,0,7.35-3.88,9-14.93,0,.92,1.65,3.33,2,4.08C289,261.6,289,284.68,274.16,296.86Z"/><path class="cls-2" d="M201.59,170.93l-.31-.1A.52.52,0,0,1,201.59,170.93Z"/><path class="cls-2" d="M319.72,199.22q-1.46-4.32-3.2-8.42c-.69-1.64-4.42-7-4.17-8.8-2.64,18.62-13,27.65-17.19,30.6a16.74,16.74,0,0,1-1.78,1.14,240.63,240.63,0,0,0-3.87-24.54v0c-14.59-68.21-53-85.36-53-85.36a55.44,55.44,0,0,1,6.44,17.37,84.63,84.63,0,0,1,.74,25.79v0c-2.73,24.43-13.29,45.52-13.29,45.52-4.66-12.59-25.84-20.54-28.74-21.58,1.67,1.17,2.8,10.95,3.17,15.94.08,1.28.12,2.24.11,2.67A29.33,29.33,0,0,1,200.61,204h0c-3.46,5.9-8.65,11.15-14.21,17.85a46.92,46.92,0,0,0-8.74,16.5,52.84,52.84,0,0,0,9.5,48.32c11.77,14.92,30.79,24.62,49.37,28.4h0a84.27,84.27,0,0,0,20.5,1.71,78.64,78.64,0,0,0,9.9-1.08h0a71,71,0,0,0,33.18-14.94,64.59,64.59,0,0,0,12.26-13.29C329.49,262.86,329.41,227.89,319.72,199.22Zm-45.56,97.64a34.32,34.32,0,0,1-20.38,7.58c-15,.7-35.44-8.61-38.25-25.83a24.09,24.09,0,0,1,4.85-19.07c4.51-5.44,8.52-8.86,8.74-15.26,0-1-.55-8.09-1.53-8.8,1.39.49,11.38,4.25,13.59,10.2,0,0,12.64-25.27,2.88-42,0,0,22.43,10,26.92,52,0,0,7.35-3.88,9-14.93,0,.92,1.65,3.33,2,4.08C289,261.6,289,284.68,274.16,296.86Z"/></g></svg>