<svg xmlns="http://www.w3.org/2000/svg" viewBox="0 0 500 500"><defs><style>.cls-1{fill:#ff8440;}.cls-2{fill:#fff;}.cls-3{fill:none;stroke:#fff;stroke-miterlimit:10;stroke-width:18px;}</style></defs><g id="circles"><circle class="cls-1" cx="249.13" cy="251.14" r="237.55"/></g><g id="Layer_4" data-name="Layer 4"><path class="cls-2" d="M367.61,214.73c0,36.32-9.41,69.57-25,95.32a128,128,0,0,1-24.38,29.66,9.21,9.21,0,0,1-3.11,1.82c-14.85,5-34.22,8-55.42,8-18.9,0-36.34-2.39-50.43-6.43A8.76,8.76,0,0,1,206,341.3a128.1,128.1,0,0,1-27.64-33.65c-14.75-25.41-23.57-57.73-23.57-92.92A202.59,202.59,0,0,1,158.09,178c.45-2.47,2.22-4.23,4.27-4.23h197c2.44,0,4.57,2.1,5.1,5A204.14,204.14,0,0,1,367.61,214.73Z"/><ellipse class="cls-3" cx="156.35" cy="249.08" rx="41.35" ry="54.25" transform="matrix(0.56, -0.83, 0.83, 0.56, -137.6, 240.08)"/></g></svg>