<svg xmlns="http://www.w3.org/2000/svg" viewBox="0 0 500 500"><defs><style>.cls-1{fill:#69ea2d;}.cls-2{fill:#fff;}.cls-3,.cls-4{fill:none;stroke:#fff;stroke-miterlimit:10;}.cls-3{stroke-width:10px;}.cls-4{stroke-width:8px;}</style></defs><g id="circles"><circle class="cls-1" cx="250" cy="250" r="237.55"/></g><g id="Layer_4" data-name="Layer 4"><path class="cls-2" d="M262.86,128.52h-85A25.84,25.84,0,0,0,152,154.35V352H288.68V154.35A25.82,25.82,0,0,0,262.86,128.52Zm1.25,84.66a7.18,7.18,0,0,1-7.18,7.18H183.78a7.18,7.18,0,0,1-7.18-7.18V161.49a7.18,7.18,0,0,1,7.18-7.18h73.15a7.18,7.18,0,0,1,7.18,7.18Z"/><rect class="cls-3" x="109.36" y="351.96" width="281.29" height="19.52" rx="3.55"/><path class="cls-4" d="M288.69,240.24h5.6a13.92,13.92,0,0,1,13.92,13.92v34.35a13.92,13.92,0,0,0,13.92,13.92h0a13.92,13.92,0,0,0,13.92-13.92V217.64A13.92,13.92,0,0,1,350,203.72h4.52"/><path class="cls-2" d="M360.7,194.19h10.62a1.21,1.21,0,0,1,1.21,1.21V212a1.21,1.21,0,0,1-1.21,1.21H360.7a9.53,9.53,0,0,1-9.53-9.53v0a9.53,9.53,0,0,1,9.53-9.53Z"/><path class="cls-2" d="M371,198.25h11a.71.71,0,0,1,.71.71v2.1a.71.71,0,0,1-.71.71H371a0,0,0,0,1,0,0v-3.52A0,0,0,0,1,371,198.25Z"/><path class="cls-2" d="M371,205.68h11a.71.71,0,0,1,.71.71v2.1a.71.71,0,0,1-.71.71H371a0,0,0,0,1,0,0v-3.52A0,0,0,0,1,371,205.68Z"/><g id="Medium-S"><path class="cls-2" d="M206,191.83h12.64L212,209.68c-1,2.6,1.73,4,3.46,1.87L236,186.19a2.51,2.51,0,0,0,.64-1.59,1.74,1.74,0,0,0-1.84-1.76H222.11L228.75,165c1-2.6-1.76-4-3.49-1.87l-20.54,25.36a2.57,2.57,0,0,0-.64,1.59A1.77,1.77,0,0,0,206,191.83Z"/></g></g></svg>