<svg xmlns="http://www.w3.org/2000/svg" viewBox="0 0 500 500"><defs><style>.cls-1{fill:#ec66ff;}.cls-2{fill:#fff;}</style></defs><g id="circles"><circle class="cls-1" cx="250.88" cy="250" r="237.55"/></g><g id="Layer_4" data-name="Layer 4"><path class="cls-2" d="M369.27,139.05H317a5.87,5.87,0,0,0-5.87,5.87V183a10,10,0,0,1-10,10H200.6a10,10,0,0,1-10-10V144.92a5.87,5.87,0,0,0-5.87-5.87H132.48a5.87,5.87,0,0,0-5.87,5.87V355.08a5.87,5.87,0,0,0,5.87,5.87h52.25a5.87,5.87,0,0,0,5.87-5.87V317a10,10,0,0,1,10-10H305.28a5.87,5.87,0,0,1,5.87,5.88v42.21A5.87,5.87,0,0,0,317,361h52.25a5.87,5.87,0,0,0,5.87-5.87V144.92A5.87,5.87,0,0,0,369.27,139.05Zm-197.13,204a5.87,5.87,0,0,1-5.87,5.87H150.94a5.87,5.87,0,0,1-5.87-5.87V324.73a5.87,5.87,0,0,1,5.87-5.87h15.33a5.87,5.87,0,0,1,5.87,5.87Zm0-41.95a5.87,5.87,0,0,1-5.87,5.87H150.94a5.87,5.87,0,0,1-5.87-5.87V282.79a5.87,5.87,0,0,1,5.87-5.88h15.33a5.87,5.87,0,0,1,5.87,5.88Zm0-42a5.87,5.87,0,0,1-5.87,5.88H150.94a5.87,5.87,0,0,1-5.87-5.88V240.84a5.87,5.87,0,0,1,5.87-5.88h15.33a5.87,5.87,0,0,1,5.87,5.88Zm0-42a5.87,5.87,0,0,1-5.87,5.88H150.94a5.87,5.87,0,0,1-5.87-5.88V198.89a5.87,5.87,0,0,1,5.87-5.88h15.33a5.87,5.87,0,0,1,5.87,5.88Zm0-41.94a5.87,5.87,0,0,1-5.87,5.87H150.94a5.87,5.87,0,0,1-5.87-5.87V156.93a5.87,5.87,0,0,1,5.87-5.87h15.33a5.87,5.87,0,0,1,5.87,5.87Zm129,112.62H200.6a10,10,0,0,1-10-10V222.13a10,10,0,0,1,10-10H301.15a10,10,0,0,1,10,10v55.76A10,10,0,0,1,301.15,287.89Zm55.53,55.18a5.87,5.87,0,0,1-5.87,5.87H335.48a5.87,5.87,0,0,1-5.87-5.87V324.73a5.87,5.87,0,0,1,5.87-5.87h15.33a5.87,5.87,0,0,1,5.87,5.87Zm0-41.95a5.87,5.87,0,0,1-5.87,5.87H335.48a5.87,5.87,0,0,1-5.87-5.87V282.79a5.87,5.87,0,0,1,5.87-5.88h15.33a5.87,5.87,0,0,1,5.87,5.88Zm0-42a5.87,5.87,0,0,1-5.87,5.88H335.48a5.87,5.87,0,0,1-5.87-5.88V240.84a5.87,5.87,0,0,1,5.87-5.88h15.33a5.87,5.87,0,0,1,5.87,5.88Zm0-42a5.87,5.87,0,0,1-5.87,5.88H335.48a5.87,5.87,0,0,1-5.87-5.88V198.89a5.87,5.87,0,0,1,5.87-5.88h15.33a5.87,5.87,0,0,1,5.87,5.88Zm0-41.94a5.87,5.87,0,0,1-5.87,5.87H335.48a5.87,5.87,0,0,1-5.87-5.87V156.93a5.87,5.87,0,0,1,5.87-5.87h15.33a5.87,5.87,0,0,1,5.87,5.87Z"/></g></svg>