<svg xmlns="http://www.w3.org/2000/svg" viewBox="0 0 500 500"><defs><style>.cls-1{fill:#80d2ff;}.cls-2{fill:none;stroke:#fff;stroke-miterlimit:10;stroke-width:9px;}.cls-3{fill:#fff;}</style></defs><g id="circles"><circle class="cls-1" cx="246.13" cy="250" r="237.55"/></g><g id="Layer_4" data-name="Layer 4"><circle class="cls-2" cx="245.24" cy="105.22" r="8.23"/><line class="cls-2" x1="251.56" y1="99.95" x2="320.54" y2="174.14"/><line class="cls-2" x1="169.97" y1="174.14" x2="238.96" y2="99.95"/><path class="cls-3" d="M381,236.61c-4.23-12.69-13.38-24.63-11.63-37.89,1.05-8,6-15.25,7-23.11a18.86,18.86,0,0,0-15.94-20.88c-6.21-1-11.66,1.77-17.09,4.08-20.21,8.62-43.69,11.77-64.14,3.76-4.63-1.82-9.14-4.2-14.07-4.8-4.2-.53-8.92.61-11.64,3.69a1.8,1.8,0,0,1-2.74-.16l-4-5.25a1.78,1.78,0,0,0-2.82,0l-4.07,5.26a1.76,1.76,0,0,1-2.74.08c-2.52-3-7-4.19-11.05-3.74-4.77.53-9.14,2.85-13.6,4.64-19.47,7.8-41.89,5.71-61.37-2-7.69-3.06-16.92-8.38-25-4.41-6.45,3.16-11.41,8.85-11.85,16.31-.57,9.81,6.46,18.56,7.31,28.34,1,11.93-7.05,22.47-11.26,33.69a53.89,53.89,0,0,0-.59,35.67c4.24,12.62,13.3,24.49,11.58,37.68-1.19,9-7.41,17.12-7.1,26.22.35,10.13,10.33,18.88,20.43,17.91,4.46-.43,8.58-2.44,12.7-4.2,20.22-8.63,43.71-11.78,64.18-3.77,4.63,1.81,9.13,4.19,14.07,4.8,4.19.52,8.91-.61,11.64-3.68a1.78,1.78,0,0,1,2.73.16l4,5.24a1.78,1.78,0,0,0,2.83,0l4-5.25a1.79,1.79,0,0,1,2.74-.15c2.7,3.06,7.41,4.2,11.6,3.68,4.92-.59,9.41-3,14-4.77,20.57-8.06,44.19-4.91,64.48,3.84,4,1.71,8,3.66,12.26,4.12,9.61,1,19.31-6.72,20.39-16.32.65-5.71-1.34-11.14-3.39-16.61-1.71-4.57-3.45-9.15-3.74-13.94-.69-11.57,7.09-21.71,11.2-32.56A53.59,53.59,0,0,0,381,236.61Zm-36.46,73.24a4.24,4.24,0,0,1-4.25,4.24h-190a4.24,4.24,0,0,1-4.25-4.24V196.4a4.26,4.26,0,0,1,4.25-4.25h190a4.26,4.26,0,0,1,4.25,4.25Z"/></g></svg>