<svg xmlns="http://www.w3.org/2000/svg" viewBox="0 0 500 500"><defs><style>.cls-1{fill:#33aa63;}.cls-2{fill:#fff;}</style></defs><g id="circles"><circle class="cls-1" cx="248.88" cy="250" r="237.55"/></g><g id="Layer_4" data-name="Layer 4"><ellipse class="cls-2" cx="337.44" cy="158.33" rx="29.06" ry="30.67"/><ellipse class="cls-2" cx="337.44" cy="207.2" rx="42.81" ry="45.19"/><path class="cls-2" d="M389.61,262.28c0,1.86-.09,3.69-.26,5.5-2.07,22-16.42,40.22-35.73,46.87a49.86,49.86,0,0,1-32.37,0c-19.31-6.65-33.66-24.85-35.73-46.87-.17-1.81-.26-3.64-.26-5.5,0-30.42,23.36-55.08,52.18-55.08S389.61,231.86,389.61,262.28Z"/><path class="cls-2" d="M116.63,243.43H256.27a9.63,9.63,0,0,1,9.63,9.63v1.26a2.78,2.78,0,0,1-2.78,2.78H109.77a2.78,2.78,0,0,1-2.78-2.78v-1.26a9.63,9.63,0,0,1,9.63-9.63Z"/><rect class="cls-2" x="106.99" y="263.43" width="158.91" height="13.67" rx="2.51"/><path class="cls-2" d="M109.77,283.43H263.12a2.78,2.78,0,0,1,2.78,2.78v1.53a9.36,9.36,0,0,1-9.36,9.36H116.35a9.36,9.36,0,0,1-9.36-9.36v-1.53A2.78,2.78,0,0,1,109.77,283.43Z"/><rect class="cls-2" x="99.85" y="304.76" width="173.2" height="13.67" rx="3.23"/><rect class="cls-2" x="119.13" y="235.75" width="15.67" height="109.02" rx="5.21"/><rect class="cls-2" x="238.1" y="235.75" width="15.67" height="109.02" rx="5.21"/><path class="cls-2" d="M353.62,305.15v9.5a49.86,49.86,0,0,1-32.37,0v-9.5Z"/><path class="cls-2" d="M337.44,328.35a49.62,49.62,0,0,0,14.18-2.06,1.56,1.56,0,0,1,2,1.51v13.88a3.1,3.1,0,0,1-3.1,3.1H324.35a3.1,3.1,0,0,1-3.1-3.1V327.79a1.56,1.56,0,0,1,2-1.5A49.84,49.84,0,0,0,337.44,328.35Z"/></g></svg>