<svg xmlns="http://www.w3.org/2000/svg" viewBox="0 0 500 500"><defs><style>.cls-1{fill:#f95f5f;}.cls-2{fill:#91855e;}.cls-3{fill:#fff;}</style></defs><g id="circles"><circle class="cls-1" cx="250.75" cy="250" r="237.55"/></g><g id="Layer_4" data-name="Layer 4"><path class="cls-2" d="M176.56,315.07a22.79,22.79,0,1,1-45.57,0,23.34,23.34,0,0,1,.28-3.57,22.79,22.79,0,0,1,45,0A23.34,23.34,0,0,1,176.56,315.07Z"/><path class="cls-2" d="M252.56,315.07a22.79,22.79,0,1,1-45.57,0,23.34,23.34,0,0,1,.28-3.57,22.79,22.79,0,0,1,45,0A23.34,23.34,0,0,1,252.56,315.07Z"/><path class="cls-2" d="M378.56,315.07a22.79,22.79,0,1,1-45.57,0,23.34,23.34,0,0,1,.28-3.57,22.79,22.79,0,0,1,45,0A23.34,23.34,0,0,1,378.56,315.07Z"/><path class="cls-3" d="M130.44,296.34a29.9,29.9,0,0,0-6.14,13.54,2,2,0,0,1-2,1.62h-23a4,4,0,0,1-4-4v-7.16a4,4,0,0,1,4-4Z"/><path class="cls-3" d="M176.28,311.5h-45a22.74,22.74,0,0,1,9.52-15.16h26A22.79,22.79,0,0,1,176.28,311.5Z"/><path class="cls-3" d="M177.1,296.34h29.34a29.9,29.9,0,0,0-6.14,13.54,2,2,0,0,1-2,1.62H185.2a2,2,0,0,1-2-1.62A29.9,29.9,0,0,0,177.1,296.34Z"/><path class="cls-3" d="M252.28,311.5h-45a22.74,22.74,0,0,1,9.52-15.16h26A22.79,22.79,0,0,1,252.28,311.5Z"/><path class="cls-3" d="M253.1,296.34h79.34a29.9,29.9,0,0,0-6.14,13.54,2,2,0,0,1-2,1.62H261.2a2,2,0,0,1-2-1.62A29.9,29.9,0,0,0,253.1,296.34Z"/><path class="cls-3" d="M378.28,311.5h-45a22.74,22.74,0,0,1,9.52-15.16h26A22.79,22.79,0,0,1,378.28,311.5Z"/><path class="cls-3" d="M414.26,300.34v7.16a4,4,0,0,1-4,4H387.2a2,2,0,0,1-2-1.62,29.9,29.9,0,0,0-6.14-13.54h31.16A4,4,0,0,1,414.26,300.34Z"/><path class="cls-3" d="M153.77,292.28a22.64,22.64,0,0,1,13,4.06h-26A22.69,22.69,0,0,1,153.77,292.28Z"/><path class="cls-3" d="M229.77,292.28a22.64,22.64,0,0,1,13,4.06h-26A22.69,22.69,0,0,1,229.77,292.28Z"/><path class="cls-3" d="M355.77,292.28a22.64,22.64,0,0,1,13,4.06h-26A22.69,22.69,0,0,1,355.77,292.28Z"/><path class="cls-3" d="M405.19,244.52v51.82H379.1a29.92,29.92,0,0,0-46.66,0H253.1a29.92,29.92,0,0,0-46.66,0H177.1a29.92,29.92,0,0,0-46.66,0H104.36V243.56a4,4,0,0,1,4-4H404.55A20.11,20.11,0,0,1,405.19,244.52Z"/><path class="cls-3" d="M403.25,235.88l-.18-.36,0,0-36.17-68.82a6,6,0,0,0-5.31-3.21h-73.4a4,4,0,0,0-4,4v72.11H404.55A20.07,20.07,0,0,0,403.25,235.88Zm-79.13-11.11a3,3,0,0,1-3,3H300.05a3,3,0,0,1-3-3V178.68a3,3,0,0,1,3-3h21.07a3,3,0,0,1,3,3Zm57.31,3H338.12a2,2,0,0,1-2-2V177.68a2,2,0,0,1,2-2h16.53a5,5,0,0,1,4.38,2.66l24.17,46.51A2,2,0,0,1,381.43,227.77Z"/><rect class="cls-3" x="194.36" y="218.1" width="76.46" height="13.47" rx="3"/><rect class="cls-3" x="154.96" y="196.4" width="115.86" height="13.47" rx="3"/><rect class="cls-3" x="115.1" y="138.8" width="155.72" height="9.3" rx="4.65"/><rect class="cls-3" x="115.1" y="178.8" width="155.72" height="9.3" rx="4.65"/><rect class="cls-3" x="125.31" y="148.11" width="9.3" height="30.7"/><rect class="cls-3" x="150.31" y="148.11" width="9.3" height="30.7"/><rect class="cls-3" x="175.31" y="148.11" width="9.3" height="30.7"/><rect class="cls-3" x="200.31" y="148.11" width="9.3" height="30.7"/><rect class="cls-3" x="225.31" y="148.11" width="9.3" height="30.7"/><rect class="cls-3" x="251.31" y="148.11" width="9.3" height="30.7"/><path class="cls-3" d="M176.56,315.07a22.79,22.79,0,1,1-45.57,0,23.34,23.34,0,0,1,.28-3.57,22.79,22.79,0,0,1,45,0A23.34,23.34,0,0,1,176.56,315.07Z"/><path class="cls-3" d="M252.56,315.07a22.79,22.79,0,1,1-45.57,0,23.34,23.34,0,0,1,.28-3.57,22.79,22.79,0,0,1,45,0A23.34,23.34,0,0,1,252.56,315.07Z"/><path class="cls-3" d="M281.18,239.57s3,0,3-2.84,3.22-.76,3.22-.76l-1.5,5h-4.08Z"/><path class="cls-3" d="M378.56,315.07a22.79,22.79,0,1,1-45.57,0,23.34,23.34,0,0,1,.28-3.57,22.79,22.79,0,0,1,45,0A23.34,23.34,0,0,1,378.56,315.07Z"/></g></svg>