<svg xmlns="http://www.w3.org/2000/svg" viewBox="0 0 500 500"><defs><style>.cls-1{fill:#279eff;}.cls-2{fill:#fff;}</style></defs><g id="circles"><circle class="cls-1" cx="248.88" cy="250" r="237.55"/></g><g id="Layer_4" data-name="Layer 4"><path class="cls-2" d="M307.37,122.66H196.11a39.46,39.46,0,0,0-39.45,39.46V321.84a16,16,0,0,0,16,16H330.84a16,16,0,0,0,16-16V162.12A39.46,39.46,0,0,0,307.37,122.66Zm-67.1,20.86a3.2,3.2,0,0,1,3.2-3.2h65.87a3.2,3.2,0,0,1,3.2,3.2v12.65a3.19,3.19,0,0,1-3.2,3.19H243.47a3.19,3.19,0,0,1-3.2-3.19Zm-53.32,0a3.2,3.2,0,0,1,3.2-3.2h29.32a3.2,3.2,0,0,1,3.2,3.2v12.65a3.19,3.19,0,0,1-3.2,3.19H190.15a3.19,3.19,0,0,1-3.2-3.19Zm16.42,174.62a7.47,7.47,0,0,1-7.47,7.46H178.71a7.47,7.47,0,0,1-7.47-7.46V300.93a7.46,7.46,0,0,1,7.47-7.46H195.9a7.46,7.46,0,0,1,7.47,7.46Zm128.87,0a7.46,7.46,0,0,1-7.46,7.46H307.59a7.47,7.47,0,0,1-7.47-7.46V300.93a7.46,7.46,0,0,1,7.47-7.46h17.19a7.45,7.45,0,0,1,7.46,7.46Zm0-34.94h-161V169.63h161Z"/><path class="cls-2" d="M361.47,193.64h16a15,15,0,0,1,15,15v43.21a15,15,0,0,1-15,15h-16a0,0,0,0,1,0,0V193.64A0,0,0,0,1,361.47,193.64Z"/><path class="cls-2" d="M126.33,193.64h16a0,0,0,0,1,0,0v73.21a0,0,0,0,1,0,0h-16a15,15,0,0,1-15-15V208.64A15,15,0,0,1,126.33,193.64Z"/><path class="cls-2" d="M174.08,348.77h26.44a0,0,0,0,1,0,0v24.92a7,7,0,0,1-7,7H181.08a7,7,0,0,1-7-7V348.77A0,0,0,0,1,174.08,348.77Z"/><path class="cls-2" d="M303,348.77h26.44a0,0,0,0,1,0,0v24.92a7,7,0,0,1-7,7H310a7,7,0,0,1-7-7V348.77A0,0,0,0,1,303,348.77Z"/></g></svg>