<svg xmlns="http://www.w3.org/2000/svg" viewBox="0 0 500 500"><defs><style>.cls-1{fill:#33aa63;}.cls-2{fill:#fff;}</style></defs><g id="circles"><circle class="cls-1" cx="249.88" cy="250" r="237.55"/></g><g id="Layer_4" data-name="Layer 4"><path class="cls-2" d="M343.46,364.6l-91.63-20.75a3.87,3.87,0,0,0-1.66,0L158.54,364.6a3.74,3.74,0,0,1-4-5.56l93.29-157.78a3.75,3.75,0,0,1,6.45,0L347.51,359A3.74,3.74,0,0,1,343.46,364.6Z"/><path class="cls-2" d="M317.24,273.21l-65.33-16.33a3.74,3.74,0,0,0-1.82,0l-65.33,16.33a3.75,3.75,0,0,1-4.13-5.54l67.15-113.56a3.74,3.74,0,0,1,6.45,0l67.14,113.56A3.75,3.75,0,0,1,317.24,273.21Z"/><path class="cls-2" d="M293,191.39l-40.72-14.72a3.7,3.7,0,0,0-2.54,0L209,191.39a3.75,3.75,0,0,1-4.5-5.43l43.27-73.17a3.75,3.75,0,0,1,6.45,0L297.49,186A3.75,3.75,0,0,1,293,191.39Z"/><path class="cls-2" d="M266.51,363.28v22.2a3.75,3.75,0,0,1-3.75,3.75H239.24a3.75,3.75,0,0,1-3.75-3.75v-22.2a3.75,3.75,0,0,1,2.92-3.65L250.18,357a3.83,3.83,0,0,1,1.65,0l11.76,2.67A3.75,3.75,0,0,1,266.51,363.28Z"/></g></svg>