<svg xmlns="http://www.w3.org/2000/svg" viewBox="0 0 500 500"><defs><style>.cls-1{fill:#80d2ff;}.cls-2{fill:none;stroke:#fff;stroke-miterlimit:10;stroke-width:27px;}.cls-3{fill:#fff;}</style></defs><g id="circles"><circle class="cls-1" cx="250" cy="250" r="237.55"/></g><g id="Layer_4" data-name="Layer 4"><path class="cls-2" d="M202.28,127.32h95.44a22.76,22.76,0,0,1,18.41,36.13l-47.72,65.67a22.75,22.75,0,0,1-36.82,0l-47.72-65.67A22.76,22.76,0,0,1,202.28,127.32Z"/><path class="cls-3" d="M234.18,184.27A92.74,92.74,0,0,0,159.3,294.93C169.59,343.43,217,375.49,265.83,367A92.74,92.74,0,0,0,340.7,256.35C330.41,207.85,283,175.79,234.18,184.27Zm28,162.38a72,72,0,0,1-76.47-103.48,2,2,0,0,1,3.8,1.43,72.07,72.07,0,0,0,111.78,75.71,2,2,0,0,1,2.74,3A71.76,71.76,0,0,1,262.16,346.65Z"/></g></svg>