<svg xmlns="http://www.w3.org/2000/svg" viewBox="0 0 500 500"><defs><style>.cls-1{fill:#33aa63;}.cls-2,.cls-4,.cls-5{fill:none;stroke:#fff;stroke-miterlimit:10;}.cls-2{stroke-width:6px;}.cls-3{fill:#fff;}.cls-4{stroke-width:16px;}.cls-5{stroke-linecap:round;stroke-width:5px;}</style></defs><g id="circles"><circle class="cls-1" cx="251.88" cy="250" r="237.55"/></g><g id="Layer_4" data-name="Layer 4"><ellipse class="cls-2" cx="250.88" cy="266.53" rx="77.35" ry="25.76"/><ellipse class="cls-2" cx="250.88" cy="241.88" rx="102.33" ry="28"/><path class="cls-2" d="M166,192.36s-39.48,19.31,30.33,56.56"/><path class="cls-2" d="M210,184.08s-30.89,21,13.87,58.45"/><path class="cls-2" d="M334.18,192.36s41.06,19.31-28.76,56.56"/><path class="cls-2" d="M290.19,184.08s32.47,21-12.28,58.45"/><line class="cls-2" x1="250.87" y1="181.44" x2="250.88" y2="240.77"/><path class="cls-3" d="M375.9,313.58c0,18.73-35.62,34.64-85.1,40.3a5,5,0,0,1-5.55-4.95V329.69a28.29,28.29,0,0,0-5.08-16.11,31.17,31.17,0,0,0-5-5.67,36.37,36.37,0,0,0-24.3-9c-12.39,0-23.26,5.88-29.3,14.69a28.29,28.29,0,0,0-5.08,16.11v19.24a5,5,0,0,1-5.55,4.95c-49.48-5.66-85.1-21.57-85.1-40.3,0-23.48,56-42.52,125-42.52S375.9,290.1,375.9,313.58Z"/><path class="cls-3" d="M375.9,224v89.63H280.17a31.17,31.17,0,0,0-5-5.67,36.37,36.37,0,0,0-24.3-9c-12.39,0-23.26,5.88-29.3,14.69H125.85V224c0,23.49,56,42.52,125,42.52S375.9,247.44,375.9,224Z"/><ellipse class="cls-4" cx="250.87" cy="223.96" rx="117.47" ry="42.52"/><line class="cls-5" x1="250.87" y1="181.44" x2="250.88" y2="119.49"/><line class="cls-5" x1="175.6" y1="194.18" x2="175.6" y2="136.23"/><line class="cls-5" x1="325.6" y1="194.18" x2="325.6" y2="136.23"/><path class="cls-3" d="M182.73,153.64v-16a1,1,0,0,1,1.35-.94l21.36,8a1,1,0,0,1,0,1.87l-21.36,8A1,1,0,0,1,182.73,153.64Z"/><path class="cls-3" d="M257.89,136.9v-16a1,1,0,0,1,1.35-.94l21.36,8a1,1,0,0,1,0,1.87l-21.36,8A1,1,0,0,1,257.89,136.9Z"/><path class="cls-3" d="M332.73,153.64v-16a1,1,0,0,1,1.35-.94l21.36,8a1,1,0,0,1,0,1.87l-21.36,8A1,1,0,0,1,332.73,153.64Z"/></g></svg>