<svg xmlns="http://www.w3.org/2000/svg" viewBox="0 0 500 500"><defs><style>.cls-1{fill:#f95f5f;}.cls-2{fill:#fff;}.cls-3{fill:none;stroke:#fff;stroke-linecap:round;stroke-linejoin:round;stroke-width:9px;}.cls-4{fill:#ef4343;}</style></defs><g id="circles"><circle class="cls-1" cx="246.13" cy="250" r="237.55"/></g><g id="Layer_4" data-name="Layer 4"><path class="cls-2" d="M323.06,143.56a6.22,6.22,0,0,1-.95,3.23,11,11,0,0,1-2,2.42c-5.91,5.57-20.34,10.24-39.45,13A287.43,287.43,0,0,1,240.05,165a287.32,287.32,0,0,1-40.63-2.74c-19.1-2.77-33.52-7.43-39.43-13-1.91-1.79-2.94-3.69-2.94-5.65,0-11.82,37.16-21.4,83-21.4S323.06,131.74,323.06,143.56Z"/><path class="cls-2" d="M310.53,143.56a32,32,0,0,1,9.6,5.65c-5.91,5.57-20.34,10.24-39.45,13A287.43,287.43,0,0,1,240.05,165a287.32,287.32,0,0,1-40.63-2.74c-19.1-2.77-33.52-7.43-39.43-13a31.94,31.94,0,0,1,9.6-5.65c14.66-6.06,40.74-10.09,70.46-10.09S295.87,137.5,310.53,143.56Z"/><path class="cls-2" d="M240.05,163.83a287.32,287.32,0,0,1-40.63-2.74,302.61,302.61,0,0,1,81.26,0A287.43,287.43,0,0,1,240.05,163.83Z"/><path class="cls-2" d="M322.1,176.52c-2.09-3.59-7.63-6.87-15.71-9.63a.09.09,0,0,0-.12,0s-.06.07-.15,0c-8,2.71-18.61,4.81-30.77,6.21l-2.19.25c-6.08.64-12.56,1.12-19.27,1.41l-2.07.08q-3.34.12-6.78.17c-1.49,0-3,0-4.51,0-1.69,0-3.37,0-5.05,0s-3.1,0-4.64-.1l-2.16-.07c-22.17-.78-41.54-3.82-54.53-8.18-10.73,3.59-17.11,8.12-17.11,13,0,11.81,37.17,21.4,83,21.4s83-9.59,83-21.4A6.13,6.13,0,0,0,322.1,176.52ZM191.6,189.21a132.57,132.57,0,0,1-16.19-4v-10.1h.23a134.15,134.15,0,0,0,16,3.88Zm58.81,3.92h-2.25c-2.68.07-5.38.1-8.12.1s-5.43,0-8.07-.1h-2.25V183H232c2.64.07,5.36.1,8.07.1s5.44,0,8.12-.1h2.25Zm54.3-7.88a133.21,133.21,0,0,1-16.2,4V179a135.14,135.14,0,0,0,16-3.88h.24Z"/><path class="cls-2" d="M262,249.31V312a38.7,38.7,0,0,0-45.14,14.58c-24.23-2.41-41.41-8.47-41.41-15.56V233.88c15.21,4.87,38.52,8,64.65,8,4.71,0,9.33-.1,13.83-.29A7.73,7.73,0,0,1,262,249.31Z"/><path class="cls-3" d="M210.51,354.12c-20.85-2.77-35.11-8.38-35.11-14.84V209c15.21,4.86,38.52,8,64.65,8s49.44-3.11,64.65-8v89.12"/><path class="cls-2" d="M235.73,368.64l38.55-27.77a2.94,2.94,0,0,1,4.57,1.75,28.6,28.6,0,0,1-42.91,30.91A2.94,2.94,0,0,1,235.73,368.64Z"/><path class="cls-2" d="M266.33,329.81,227.76,357.6a2.91,2.91,0,0,1-4.53-1.63,28.6,28.6,0,0,1,40.31-32.46,29.36,29.36,0,0,1,2.68,1.49A2.91,2.91,0,0,1,266.33,329.81Z"/><path class="cls-2" d="M296.12,325.29l33.5,34.1a2.82,2.82,0,0,1-.87,4.57,28.6,28.6,0,0,1-37.22-37.88A2.82,2.82,0,0,1,296.12,325.29Z"/><path class="cls-2" d="M339.22,349.74l-33.28-33.88a2.94,2.94,0,0,1,1-4.79A28.61,28.61,0,0,1,344,348.79,3,3,0,0,1,339.22,349.74Z"/><path class="cls-2" d="M322.11,143.56v3.23a11,11,0,0,1-2,2.42c-5.91,5.57-20.34,10.24-39.45,13A287.43,287.43,0,0,1,240.05,165a287.32,287.32,0,0,1-40.63-2.74c-19.1-2.77-33.52-7.43-39.43-13-1.91-1.79-2.94-3.69-2.94-5.65Z"/><path class="cls-2" d="M323.06,159.8v19.95H304.7v-4.6h-.22a135.34,135.34,0,0,1-16,3.88v.72h-96.9V179a133.87,133.87,0,0,1-16-3.88h-.23v4.6H157.05v-21a1,1,0,0,1,1.76-.64c2.6,3.19,8,6.12,15.44,8.61,13.4,4.48,33.58,7.57,56.59,8.26,1.54.05,3.09.08,4.65.1s3.35,0,5,0c1.52,0,3,0,4.53,0q3.42,0,6.77-.17c22.12-.76,41.48-3.74,54.57-8l.44-.15c6.7-2.24,11.7-4.83,14.53-7.64A1,1,0,0,1,323.06,159.8Z"/><path class="cls-4" d="M248.16,183c-2.68.07-5.38.1-8.12.1s-5.43,0-8.07-.1Z"/></g></svg>