<svg xmlns="http://www.w3.org/2000/svg" viewBox="0 0 500 500"><defs><style>.cls-1{fill:#ff8440;}.cls-2{fill:#fff;}.cls-3{fill:#cec089;}</style></defs><g id="circles"><circle class="cls-1" cx="250.87" cy="250" r="237.55"/></g><g id="Layer_4" data-name="Layer 4"><path class="cls-2" d="M372,275.21c-5.8-57.83-59.15-103.14-124.09-103.14S129.57,217.38,123.77,275.21a9.54,9.54,0,0,0,9.51,10.48H362.44A9.55,9.55,0,0,0,372,275.21Zm-134.42-77a5.1,5.1,0,0,1-4.57,5c-35.93,3.94-68.88,29.93-71.38,62.14a5.08,5.08,0,0,1-8.56,3.26,5,5,0,0,1-1.55-3.45c0-.63,0-1.26,0-1.88,0-37.61,38.31-68.39,80.69-70.82a5.09,5.09,0,0,1,5.4,5.07Z"/><path class="cls-2" d="M397.42,314.86a11,11,0,0,1-11,11H370.27a9.68,9.68,0,0,0-8.09,4.37l-7.27,11.17a24.9,24.9,0,0,1-20.86,11.31H159.56A24.91,24.91,0,0,1,138.7,341.4l-7.27-11.17a9.65,9.65,0,0,0-8.07-4.37H107.19a11,11,0,0,1,0-22H386.42A11,11,0,0,1,397.42,314.86Z"/><circle class="cls-2" cx="247.86" cy="144.95" r="13.66"/><path class="cls-3" d="M335,277.91v7.78c0-1.28,0-2.54-.1-3.81S335,279.24,335,277.91Z"/></g></svg>