<svg xmlns="http://www.w3.org/2000/svg" viewBox="0 0 500 500"><defs><style>.cls-1{fill:#234f8e;}.cls-2,.cls-3{fill:#fff;}.cls-3{font-size:67.97px;font-family:HelveticaNeue-Medium, Helvetica Neue;font-weight:500;letter-spacing:0.1em;}</style></defs><g id="circles"><circle class="cls-1" cx="250" cy="250" r="237.55"/></g><g id="Layer_4" data-name="Layer 4"><path class="cls-2" d="M227,210.56h-70.3a16.7,16.7,0,0,1-16.7,16.7v45.48a16.7,16.7,0,0,1,16.7,16.7H227c-8.74-9.16-14.35-23.42-14.35-39.44S218.28,219.72,227,210.56Zm0,0h-70.3a16.7,16.7,0,0,1-16.7,16.7v45.48a16.7,16.7,0,0,1,16.7,16.7H227c-8.74-9.16-14.35-23.42-14.35-39.44S218.28,219.72,227,210.56Zm0,0h-70.3a16.7,16.7,0,0,1-16.7,16.7v45.48a16.7,16.7,0,0,1,16.7,16.7H227c-8.74-9.16-14.35-23.42-14.35-39.44S218.28,219.72,227,210.56Zm0,0h-70.3a16.7,16.7,0,0,1-16.7,16.7v45.48a16.7,16.7,0,0,1,16.7,16.7H227c-8.74-9.16-14.35-23.42-14.35-39.44S218.28,219.72,227,210.56Zm0,0h-70.3a16.7,16.7,0,0,1-16.7,16.7v45.48a16.7,16.7,0,0,1,16.7,16.7H227c-8.74-9.16-14.35-23.42-14.35-39.44S218.28,219.72,227,210.56Zm116.26,0H273c8.74,9.16,14.35,23.42,14.35,39.44s-5.61,30.28-14.35,39.44h70.3a16.7,16.7,0,0,1,16.7-16.7V227.26A16.7,16.7,0,0,1,343.28,210.56Zm-116.26,0h-70.3a16.7,16.7,0,0,1-16.7,16.7v45.48a16.7,16.7,0,0,1,16.7,16.7H227c-8.74-9.16-14.35-23.42-14.35-39.44S218.28,219.72,227,210.56Zm0,0h-70.3a16.7,16.7,0,0,1-16.7,16.7v45.48a16.7,16.7,0,0,1,16.7,16.7H227c-8.74-9.16-14.35-23.42-14.35-39.44S218.28,219.72,227,210.56Zm116.26,0H273c8.74,9.16,14.35,23.42,14.35,39.44s-5.61,30.28-14.35,39.44h70.3a16.7,16.7,0,0,1,16.7-16.7V227.26A16.7,16.7,0,0,1,343.28,210.56Zm-186.56,0a16.7,16.7,0,0,1-16.7,16.7v45.48a16.7,16.7,0,0,1,16.7,16.7H227c-8.74-9.16-14.35-23.42-14.35-39.44s5.61-30.28,14.35-39.44Zm-51.28-24.51V314a8,8,0,0,0,8,8.05h273a8,8,0,0,0,8.05-8.05V186.05a8,8,0,0,0-8.05-8.05h-273A8,8,0,0,0,105.44,186.05ZM366.78,300H133.22a4,4,0,0,1-4-4V204a4,4,0,0,1,4-4H366.78a4,4,0,0,1,4,4V296A4,4,0,0,1,366.78,300Zm-23.5-10.6a16.7,16.7,0,0,1,16.7-16.7V227.26a16.7,16.7,0,0,1-16.7-16.7H273c8.74,9.16,14.35,23.42,14.35,39.44s-5.61,30.28-14.35,39.44Zm-186.56,0H227c-8.74-9.16-14.35-23.42-14.35-39.44s5.61-30.28,14.35-39.44h-70.3a16.7,16.7,0,0,1-16.7,16.7v45.48A16.7,16.7,0,0,1,156.72,289.44ZM227,210.56h-70.3a16.7,16.7,0,0,1-16.7,16.7v45.48a16.7,16.7,0,0,1,16.7,16.7H227c-8.74-9.16-14.35-23.42-14.35-39.44S218.28,219.72,227,210.56Zm116.26,0H273c8.74,9.16,14.35,23.42,14.35,39.44s-5.61,30.28-14.35,39.44h70.3a16.7,16.7,0,0,1,16.7-16.7V227.26A16.7,16.7,0,0,1,343.28,210.56Zm-116.26,0h-70.3a16.7,16.7,0,0,1-16.7,16.7v45.48a16.7,16.7,0,0,1,16.7,16.7H227c-8.74-9.16-14.35-23.42-14.35-39.44S218.28,219.72,227,210.56Zm0,0h-70.3a16.7,16.7,0,0,1-16.7,16.7v45.48a16.7,16.7,0,0,1,16.7,16.7H227c-8.74-9.16-14.35-23.42-14.35-39.44S218.28,219.72,227,210.56Zm0,0h-70.3a16.7,16.7,0,0,1-16.7,16.7v45.48a16.7,16.7,0,0,1,16.7,16.7H227c-8.74-9.16-14.35-23.42-14.35-39.44S218.28,219.72,227,210.56Zm0,0h-70.3a16.7,16.7,0,0,1-16.7,16.7v45.48a16.7,16.7,0,0,1,16.7,16.7H227c-8.74-9.16-14.35-23.42-14.35-39.44S218.28,219.72,227,210.56Zm0,0h-70.3a16.7,16.7,0,0,1-16.7,16.7v45.48a16.7,16.7,0,0,1,16.7,16.7H227c-8.74-9.16-14.35-23.42-14.35-39.44S218.28,219.72,227,210.56Z"/><text class="cls-3" transform="translate(230.89 274.73)">$</text></g></svg>