<svg xmlns="http://www.w3.org/2000/svg" viewBox="0 0 500 500"><defs><style>.cls-1{fill:#ffbc00;}.cls-2{fill:#fff;}.cls-3{fill:none;stroke:#fff;stroke-miterlimit:10;stroke-width:12px;}.cls-4{font-size:105.85px;fill:#ffb81a;font-family:HelveticaNeue-Medium, Helvetica Neue;font-weight:500;letter-spacing:0.1em;}</style></defs><g id="circles"><circle class="cls-1" cx="248.88" cy="250" r="237.55"/></g><g id="Layer_4" data-name="Layer 4"><rect class="cls-2" x="192.91" y="206.29" width="194.13" height="25.01"/><rect class="cls-3" x="192.91" y="180.7" width="194.13" height="113.52" rx="12"/><rect class="cls-2" x="211.31" y="254.67" width="30.02" height="8.97"/><rect class="cls-2" x="249.64" y="254.67" width="30.02" height="8.97"/><rect class="cls-2" x="286.73" y="254.67" width="30.02" height="8.97"/><path class="cls-2" d="M348.16,268.89a11.22,11.22,0,1,1,0-19.46,11.2,11.2,0,0,0,0,19.46Z"/><circle class="cls-2" cx="357.43" cy="259.16" r="11.21"/><path class="cls-2" d="M194.84,188.55l-50.56-20.41a16.27,16.27,0,0,0-21.19,9l-20.42,50.59a27,27,0,0,0,.2,20.63l38.42,90.42a20.69,20.69,0,0,0,27.13,11L237,320.57a20.7,20.7,0,0,0,11-27.14L209.57,203A27,27,0,0,0,194.84,188.55ZM147.6,205.42a10.81,10.81,0,1,1,5.73-14.18A10.81,10.81,0,0,1,147.6,205.42Z"/><text class="cls-4" transform="translate(162.93 317.34) rotate(-23.02)">$</text></g></svg>